<svg id="图层_1" data-name="图层 1" xmlns="http://www.w3.org/2000/svg" viewBox="0 0 283.46 283.46"><defs><style>.cls-1{fill:#a24428;}.cls-2{fill:#61a038;}.cls-3{fill:#fff;}</style></defs><title>头像1</title><path d="M94.32,157c1.5-1.87,2.75-3.31,3.86-4.86,6.26-8.66,15.28-13.62,24.5-18.31a92.63,92.63,0,0,1,30.14-9.51c7.7-1,15.37-2.21,23.05-3.34a21,21,0,0,1,14.73,3.49c4.19,2.69,8.3,5.52,12.38,8.39,3.74,2.64,4.81,6.66,4.69,10.87-.16,5.66-.93,11.31-1.22,17-.37,7.53-.77,15.06-.67,22.59.05,3.76,1.34,7.49,1.8,11.26.72,5.87-.39,11.2-4.89,15.54-2,2-3.3,3.95-5.21,6s-4.65,1.18-6.6-.82c-1.15-1.17-3.06.39-4.64,1.18-2.58,1.31-4.23,3.15-7.14,3.57-4.8.68-9.66,1-14.5,1.37-1.62.11-3.27-.41-4.9-.37-9,.22-17.93.41-26.88.86-6.49.33-12.95,1.39-19.43,1.51-9.46.18-19,1.17-28.41-.23-3.21-.47-6.26-1.31-8.83-3.48a6.65,6.65,0,0,1-2.45-5.28,3.22,3.22,0,0,0-1.42-2.31c-5.52-2.89-8.83-7.16-9.2-13.55A64.42,64.42,0,0,1,67.19,172c1.28-3.41,2.41-6.9,4-10.18a72.24,72.24,0,0,1,5.35-9.2c2.88-4.27,6-8.38,9-12.54a11.4,11.4,0,0,1,2-2.4,13.62,13.62,0,0,1,2.83-1.33,12.56,12.56,0,0,1,1,2.73c.45,4.14.67,8.3,1.21,12.43A33,33,0,0,0,94.32,157Zm48.82,39.53v.24a25.28,25.28,0,0,0,3.14,0c6.65-.85,18.08-2.31,24.7-3.32,2.29-.35,4.43-1.26,5.63-3.59,1.43-2.78,3-5.47,4.45-8.26q5.22-10.25,10.32-20.55a48.39,48.39,0,0,0,5.09-14.22c1-4.79-1.79-7.93-6-10.33a33.41,33.41,0,0,1-4.7-3c-3.78-3.12-8.16-3.62-12.71-2.86-9,1.52-17.94,3.07-26.85,4.95-5.9,1.24-11.72,2.93-17.49,4.69-5.48,1.68-10.87,3.67-16.27,5.61a34,34,0,0,0-16.64,12.63,3,3,0,0,0-.57,2.07,60.72,60.72,0,0,0,2,9.33c1.49,4.27,3.47,8.36,5.26,12.53,2,4.71,4.79,9.2,4.58,14.59-.09,2.34,1,2.69,3.06,2.47,6-.63,12-1.06,18.08-1.59C133.22,197.4,138.18,196.94,143.14,196.5Z"/><path d="M99.42,107.3a4.47,4.47,0,0,0-1.41-.15c-2.66.69-5.27,1.76-8,2.07-3,.35-4.72,1-7.71.63-4.18-.58-8.21-2.15-12.58-1-1,.25-2.34-.37-3.36-.91-2.82-1.5-5.86-2.81-8.24-4.86-2.95-2.54-4.25-6.27-4.38-10.18-.21-5.89,2.72-10,7.69-12.95a42.5,42.5,0,0,0,6.3-5.28c3.31-3,7.34-2.87,11.23-2.26,6,.93,10.48,1.62,16.4,2.88,1.09.23,2.11.73,3.18,1.07,1.25.4,2,.12,2.07-1.39.28-6,.68-12-1.86-17.64a8.81,8.81,0,0,1-.7-1.62c-.19-.86-.62-2.27-.28-2.52,1-.71,2.62-1.64,3.43-1.27C107.84,55,113.32,59.5,116,66.4c1.19,3,1.18,6.53,1.41,9.84.32,4.42-.93,4.47,4.57,4.42A96.61,96.61,0,0,0,145.09,77c1.14-.32,2.32-.55,3.49-.78,3.39-.65,3.72-1.3,4.59-4.54,1.62-6,3.56-11.83,5.4-17.72a6.62,6.62,0,0,1,1-1.73c2.17-2.94,4.18-3,5.89.32,2,3.88,3.59,8,5.22,12.07.66,1.64.82,3.47,1.43,5.13a2.25,2.25,0,0,0,1.72,1.16c4.19,0,7.65,1,11.82.67,3-.22,5.4,0,6.67,3.39.39,1,2.19,1.57,3.37,2.28a20.06,20.06,0,0,1,2.7,1.49c1.4,1.17,2,2.59.67,4.29-2.51,3.29-.65,8.2-9.5,7.22-2.39,0-4.77-.33-7.16-.39-3.43-.08-6.14-1.25-9.56-1.07-.72,0-1.47,1.13-2,1.87a2.51,2.51,0,0,0-.22,1.52c.27,5.21-3,11.39-5.86,15.2-1.44,1.93-3.56,2.21-5.85,1.3a11.08,11.08,0,0,0-3.23-.68c-4.49-.34-7-2.89-6.87-7.37.07-2.11-.36-5.09-2.34-4.66-5.47,1.19-11.68,3.39-17.16,4.53-2.55.53-6.48.4-9,.86-1.43.26-1.8.94-1.59,2.34a54.88,54.88,0,0,1,.86,8,9.78,9.78,0,0,1-1.29,4.17,18.12,18.12,0,0,1-2.21,2.8c-1.45,1.9-3.27,2.09-5.41,1.39a8.84,8.84,0,0,0-3.22-.61c-6,.38-9.67-3.81-8.5-9.79C99,108.86,99.21,108.16,99.42,107.3Z"/><path class="cls-1" d="M211.56,79.93c0-6,0-12,0-18,0-4.26,1.22-5.47,4.62-5.34,2.91.11,5.83.14,8.74,0,2.49-.11,3.63,1.26,3.73,4.23.19,5.4.47,10.8.63,16.2.18,6.32.23,12.64.4,19,.14,5.36-1.24,7.09-5.57,7-3.65,0-7.3.2-10.92-.09-.69,0-1.79-2-1.82-3-.16-6.66-.08-13.33-.08-20Z"/><path class="cls-2" d="M169.67,157.73l-2-4.26h0l-.78-3.39-2.6-3.7h0a2.14,2.14,0,0,0-.65-.62c-4.06-2.33-8.39-4-13-2.05-2.86,1.23-5.69,2.84-6.7,6.45-.73,2.62-1.55,5.34-4.22,7a10.59,10.59,0,0,1-5.55,1.55A12.42,12.42,0,0,0,123,165.59a40,40,0,0,0-4.51,13.28,3.76,3.76,0,0,0,1,3.58c1.72,1.75,3.3,3.64,5,5.42.72.76,1.29,1.94,2.34,2,5,.43,9.94,2.7,15,0a80.1,80.1,0,0,1,8.56-3.52,9.49,9.49,0,0,0,3.47-2.28q5.1-5.19,10.28-10.27a9,9,0,0,0,2.67-4.39c.72-2.92,1.75-5.76,2.59-8.66C169.69,159.82,170.15,158.78,169.67,157.73Z"/><path class="cls-2" d="M133.93,156.4c1.52.59,3.4,1,4.6-.11a10,10,0,0,0,3.61-7.53c0-1.27-.42-2-1.94-1.17-2.94,1.65-4.68,4.32-6.43,7C133.43,155.26,133,156,133.93,156.4Z"/><path class="cls-3" d="M225.45,98.19a1.72,1.72,0,0,0-1.27-.47,4.57,4.57,0,0,1-1.75-.11c.62-.78.65-1.49-.26-2-.19-.12-.41-.2-.44-.48l-.51.23c.31,1.17-.26,1.93-1.29,2.7a8.42,8.42,0,0,0-.33-2,3.58,3.58,0,0,1-.54.14c-1.29.17-1.41.49-.59,1.63.09.12.25.2.1.44-.79.1-1.63.2-2.46.33-.34,0-.89-.15-.91.4,0,.38.36.64.74.8a1.48,1.48,0,0,0,1.13.09,13.09,13.09,0,0,1,6.71-.6,10.78,10.78,0,0,0,1.27,0c.28,0,.58,0,.71-.29S225.66,98.41,225.45,98.19Z"/><path class="cls-3" d="M223.61,91.68c-.3-.62-.86-.54-1.4-.54-.16,0-.38.1-.52-.17a10.79,10.79,0,0,0,1-.76c.35-.31.95-.55.66-1.18s-.85-.49-1.33-.42c-1.33.2-2.66.47-4.09.72a4,4,0,0,0,2.13,1.47c-.91,1.41-.91,1.41-2.11.86-.06,1.49,0,2.91,1.44,3.87.13.09.15.32.23.49l.15,0a4.06,4.06,0,0,1,1.51-.56.86.86,0,0,0,.46-.4c.41,0,1-.1.84-.53-.22-.71.24-1,.57-1.36S223.93,92.33,223.61,91.68ZM220,94c-.18,0-.36-.31-.27-.44a1.71,1.71,0,0,1,1.47-.57C220.85,93.55,220.63,94.06,220,94Z"/><path class="cls-3" d="M219.08,78.67c-1.21.08-2.16,0-2.6-1.14a4,4,0,0,0,2.6-.25c.39-.15.87-.28.88-.79s-.38-.73-.79-.91L218,75.11c.85-.35,1.54-.61,2.22-.92.23-.1.56-.1.64-.42s0-.84.62-.68.87.92,1,1.52-.31.66-.7.76a6.57,6.57,0,0,1-.83.13c.23.7.8.61,1.31.63s.83.11.87.57-.5.37-.78.49a6.91,6.91,0,0,1-.79.16.66.66,0,0,0-.45.62c0,.36.26.41.53.47,1,.22,2,.44,3,.7a7,7,0,0,1,1.28.51c.24.11.51.3.45.6s-.4.27-.66.3a6.34,6.34,0,0,1-3-.55c-1.68-.68-1.69-.66-2.18,1-.54-.33-.42-1-.7-1.51-1.92,1.16-2.91,3.54-5.4,4.1Z"/><path class="cls-3" d="M222.05,81a2.82,2.82,0,0,0-1.31.42,1.52,1.52,0,0,1-2.08-.17c.09,1.29.12,2.25.22,3.21A1.25,1.25,0,0,0,220,85.69a1.73,1.73,0,0,1,1.31.78c.61.77,1.35.58,1.54-.41a19.62,19.62,0,0,0,.48-3.9C223.36,81.26,222.91,80.93,222.05,81Zm-.35,4.66c-.25-.37-.37-.7-.6-.85-.83-.53-1.63-1,.17-1.07.39,0,.46-.43.15-.68a3.27,3.27,0,0,0-.85-.33.93.93,0,0,1,1.25-.51c.54.18.31.73.3,1.11A3.67,3.67,0,0,1,221.7,85.65Z"/><path class="cls-3" d="M222.9,63.93c-.23,0-.46,0-.69.06-.5,0-.53-.15-.39-.62.32-1.17,1.07-1.43,2.17-1.32.34,0,1,.37,1.08-.4s-.58-.61-1-.57c-.7.06-.89-.11-.63-.81a1.11,1.11,0,0,0-.47-1.42,1.17,1.17,0,0,0-1.64.18,1.29,1.29,0,0,1,.73,1.72c-.16.64-.69.76-1.22.9-.22.06-.39.19-.48-.19-.39-1.58-1.13-2.06-3-1.91.51.73,1.5,1.55.84,2.29a2.51,2.51,0,0,1-3.37.41c.4,1.58,1.13,2,2.33,1.3.34-.19.75-.56,1.05-.37,1,.67,1.45.38,1.75-.69.15-.54.75-.41,1.09-.25s.06.54-.07.78a3.62,3.62,0,0,1-3,2.06c-.48.5,0,.6.32.63.71.1.91.3.58,1.05a2.09,2.09,0,0,0,.51,2.14c.53.64,1.15.16,1.71,0a4.33,4.33,0,0,0,1.39-2.45.81.81,0,0,0-1.13-.65l-1.14.37a3,3,0,0,1,3.33-1.29c.34.17.38.45.42.76a11.25,11.25,0,0,1-.17,4.13c-.18.86-.79,1.08-1.43.45a1.88,1.88,0,0,0-2.47-.41c-.72.37-1.19,0-1.41-.67s-.43-1.47-.61-2.22a2.57,2.57,0,0,0-.55-1.2h0l-.05,0-.17.75a.43.43,0,0,1,0,.12A3.37,3.37,0,0,1,217,67c0,.54,0,1.08.08,1.61.27,2.2,1.26,3,3.15,2.34a2.14,2.14,0,0,1,2.3.39c1,.79,1.8.48,2.14-.78a16.71,16.71,0,0,0,.6-4.34C225.27,64.49,224.64,63.87,222.9,63.93Zm-1.68,2.86c.17.24-.19,1.54-.74,1.66s-.75-1.11-.75-1.11S221.06,66.56,221.22,66.79Z"/></svg>