<svg width="444" height="93" viewBox="0 0 444 93" fill="none" xmlns="http://www.w3.org/2000/svg">
<path d="M21.5 57.312C22.2938 56.3225 22.9553 55.5605 23.5479 54.7456C26.8552 50.1577 31.6336 47.5331 36.5125 45.0566C41.4994 42.4723 46.895 40.7681 52.4615 40.0189C56.5308 39.4897 60.5948 38.8494 64.6324 38.2515C67.3682 37.8749 70.1461 38.5335 72.4217 40.0983C74.6442 41.5217 76.819 43.0193 78.978 44.538C80.9571 45.935 81.5233 48.0622 81.4598 50.29C81.3699 53.2851 80.9624 56.2749 80.8142 59.2858C80.6132 63.2652 80.4015 67.2551 80.4544 71.2344C80.4809 73.2241 81.1688 75.1978 81.4122 77.1928C81.7879 80.299 81.2005 83.1248 78.8246 85.416C77.7663 86.4744 77.0783 87.5327 76.0676 88.591C75.0569 89.6494 73.607 89.2155 72.5751 88.1624C71.9666 87.538 70.9506 88.3635 70.1198 88.7815C68.7493 89.4747 67.8814 90.4484 66.3416 90.6707C63.7963 91.0305 61.2298 91.1998 58.6634 91.3956C57.8114 91.4538 56.933 91.1787 56.0705 91.1998C51.308 91.3215 46.5825 91.4168 41.8465 91.6549C38.4175 91.8295 34.9991 92.3957 31.5701 92.4539C26.5589 92.5492 21.5159 93.0731 16.5365 92.3322C14.8379 92.0835 13.2186 91.639 11.8639 90.4907C11.4504 90.1533 11.1184 89.7267 10.893 89.2429C10.6676 88.759 10.5545 88.2305 10.5622 87.6967C10.5344 87.4503 10.4527 87.213 10.3228 87.0017C10.1929 86.7905 10.0181 86.6104 9.81077 86.4744C6.89507 84.9451 5.13824 82.6855 4.94774 79.3042C4.6724 74.5136 5.41172 69.7188 7.11732 65.2337C7.79994 63.4292 8.3979 61.5824 9.23398 59.8467C10.0605 58.1575 11.0085 56.5305 12.0703 54.9784C13.589 52.7242 15.2453 50.5493 16.8328 48.3427C17.1254 47.8726 17.4815 47.4452 17.8911 47.0727C18.3627 46.7834 18.865 46.5473 19.3887 46.3689C19.6234 46.8289 19.8011 47.3158 19.9178 47.8188C20.156 50.0043 20.2724 52.2056 20.5581 54.391C20.7907 55.3891 21.1058 56.3661 21.5 57.312ZM47.3498 78.23V78.357C47.9031 78.3914 48.4581 78.3914 49.0114 78.357C52.5303 77.9072 58.5734 77.1399 62.0818 76.6001C63.2883 76.4149 64.426 75.9334 65.0557 74.7004C65.8124 73.2293 66.6432 71.8059 67.4158 70.3348C69.2502 66.7153 71.0688 63.0905 72.8715 59.4605C74.1563 57.1057 75.0668 54.5653 75.5702 51.9304C76.0994 49.3957 74.623 47.7341 72.3952 46.4641C71.5234 46.0052 70.6915 45.4742 69.9081 44.8766C67.9079 43.2256 65.5954 42.9611 63.1877 43.3632C58.4252 44.1676 53.6892 44.9878 48.9796 46.0091C45.8576 46.6652 42.7778 47.5595 39.7192 48.4908C36.8194 49.3798 33.9672 50.4329 31.1097 51.4595C27.547 52.7099 24.467 55.0477 22.3044 58.1428C22.0787 58.4614 21.9719 58.849 22.0028 59.2382C22.2255 60.9091 22.5794 62.5599 23.0611 64.1753C23.8495 66.4349 24.9026 68.5991 25.8445 70.8058C26.9028 73.2981 28.3845 75.6741 28.2734 78.5263C28.2257 79.7645 28.8025 79.9498 29.8926 79.8333C33.0676 79.5053 36.2426 79.2724 39.4599 78.992C42.0881 78.7274 44.7181 78.4734 47.3498 78.23Z" fill="black"/>
<path d="M24.1988 31.0283C23.9577 30.9624 23.7076 30.9356 23.458 30.9489C22.0504 31.3141 20.6693 31.8803 19.2246 32.0443C17.6371 32.2295 16.7217 32.5735 15.1448 32.3777C12.9329 32.0708 10.795 31.2453 8.48257 31.8485C7.9534 31.9808 7.24432 31.6527 6.70986 31.367C5.21761 30.5732 3.60366 29.8853 2.34954 28.8005C0.76204 27.4511 0.0952913 25.4774 0.0264998 23.4083C-0.0793334 20.2915 1.46582 18.1167 4.09578 16.5556C5.29469 15.7342 6.41116 14.7985 7.42953 13.7616C9.18106 12.1741 11.3136 12.2429 13.3721 12.5657C16.5471 13.0578 18.923 13.423 22.0504 14.0897C22.6205 14.2498 23.1822 14.4388 23.7331 14.6559C24.3946 14.8676 24.7915 14.7194 24.8285 13.9204C24.982 10.7454 25.1936 7.57038 23.8443 4.58588C23.6937 4.31263 23.5696 4.02557 23.4738 3.72863C23.3733 3.27355 23.1458 2.52743 23.331 2.39513C23.8601 2.01943 24.7121 1.5273 25.1407 1.72309C28.6385 3.34763 31.5436 5.74475 32.9829 9.396C33.6074 10.9835 33.6021 12.8515 33.7291 14.603C33.8931 16.9419 33.2317 16.9684 36.1421 16.9419C40.2761 16.787 44.3758 16.1277 48.3499 14.9787C48.9585 14.8094 49.5776 14.6877 50.202 14.5712C51.9906 14.222 52.1652 13.878 52.6309 12.1635C53.4828 8.98854 54.5094 5.9035 55.4884 2.78672C55.6122 2.45569 55.7912 2.14797 56.0175 1.87655C57.1605 0.315513 58.2242 0.289055 59.129 2.04059C60.1874 4.09376 61.034 6.27392 61.8966 8.42762C62.2405 9.29546 62.3252 10.2638 62.6533 11.1422C62.7439 11.3107 62.8741 11.4545 63.0326 11.5614C63.1912 11.6684 63.3734 11.7352 63.5634 11.7561C65.7754 11.7561 67.6063 12.2852 69.8129 12.1106C71.4004 11.9942 72.6704 12.1106 73.3424 13.9045C73.5488 14.4337 74.5013 14.7353 75.1257 15.111C75.6238 15.3356 76.1033 15.5992 76.5598 15.8994C77.2953 16.5186 77.6181 17.27 76.909 18.1696C75.5861 19.9105 76.565 22.5087 71.8872 21.9901C70.6225 21.9901 69.3578 21.8155 68.0931 21.7838C66.2781 21.7414 64.8493 21.1223 63.0343 21.2176C62.6533 21.2176 62.2617 21.8155 61.976 22.2071C61.8518 22.4576 61.8093 22.7408 61.8542 23.0167C62.0024 25.7684 60.2667 29.0386 58.7533 31.0548C57.9966 32.076 56.8748 32.2242 55.6577 31.7427C55.1091 31.5381 54.533 31.4168 53.9485 31.3828C51.5778 31.2029 50.2443 29.8536 50.3131 27.4829C50.3502 26.3663 50.1226 24.7947 49.0749 25.0223C46.1856 25.6467 42.8942 26.8108 39.9997 27.4141C38.645 27.6946 36.5707 27.6258 35.2372 27.8692C34.4805 28.0068 34.2794 28.3666 34.3958 29.1074C34.648 30.5059 34.8001 31.9206 34.8509 33.3408C34.7907 34.118 34.5575 34.8719 34.1683 35.5474C33.8265 36.0773 33.4349 36.5735 32.9988 37.029C32.2315 38.0345 31.2632 38.135 30.136 37.7646C29.5912 37.5521 29.0116 37.4427 28.4268 37.4418C25.2518 37.6429 23.3098 35.4257 23.9289 32.2613C23.9871 31.8538 24.093 31.4834 24.1988 31.0283Z" fill="black"/>
<path d="M83.5447 16.545C83.5447 13.37 83.5447 10.195 83.5447 7.01998C83.5447 4.76574 84.1956 4.12545 85.9948 4.19424C87.5347 4.25245 89.0798 4.26832 90.6144 4.19424C91.9373 4.13603 92.5353 4.86099 92.5935 6.43261C92.6887 9.2901 92.8422 12.1476 92.9216 15.0051C93.0168 18.3494 93.0486 21.6938 93.1332 25.0592C93.2073 27.8956 92.4824 28.8057 90.1858 28.7634C88.2596 28.7634 86.3282 28.8692 84.4073 28.7158C84.0475 28.7158 83.4654 27.6575 83.4495 27.1283C83.3595 23.604 83.4019 20.0745 83.4019 16.545H83.5447Z" fill="#A24428"/>
<path d="M61.378 57.7194C61.0393 56.9733 60.6954 56.2325 60.3197 55.4599L59.9069 53.6713L58.5364 51.7081C58.4462 51.5756 58.329 51.4638 58.1924 51.38C56.044 50.1471 53.7527 49.2634 51.3132 50.3217C49.7945 50.9779 48.3023 51.8245 47.7678 53.7348C47.3815 55.1212 46.9476 56.5606 45.5295 57.439C44.6455 57.9794 43.6287 58.2633 42.5926 58.2592C41.3637 58.2506 40.1571 58.5874 39.1102 59.231C38.0634 59.8747 37.2183 60.7994 36.6712 61.8998C35.4673 64.0836 34.6577 66.4624 34.2794 68.9272C34.1969 69.2618 34.2023 69.612 34.295 69.9439C34.3878 70.2758 34.5646 70.5781 34.8086 70.8216C35.7187 71.7476 36.5548 72.7477 37.4544 73.6897C37.8301 74.0918 38.137 74.7162 38.6926 74.748C41.3385 74.9755 43.9473 76.1767 46.6301 74.748C48.1024 74.0394 49.6149 73.4174 51.1598 72.8853C51.8528 72.6224 52.4796 72.2105 52.996 71.6788C54.7916 69.8479 56.6031 68.0382 58.4305 66.2496C59.1181 65.6276 59.6091 64.8184 59.8434 63.9213C60.2297 62.3761 60.7747 60.8733 61.214 59.3387C61.3886 58.8201 61.6373 58.2751 61.378 57.7194Z" fill="#61A038"/>
<path d="M42.4656 57.0104C43.2646 57.3279 44.2648 57.5395 44.8998 56.9522C45.4855 56.4644 45.959 55.8558 46.2878 55.1681C46.6166 54.4804 46.793 53.7297 46.8048 52.9675C46.8048 52.2955 46.5878 51.9092 45.7782 52.3484C44.2224 53.2215 43.3017 54.6344 42.3809 56.0526C42.1957 56.4071 41.9788 56.8199 42.4656 57.0104Z" fill="#61A038"/>
<path d="M90.8896 26.2076C90.8017 26.1226 90.6969 26.057 90.582 26.0151C90.4672 25.9732 90.3448 25.9558 90.2228 25.9642C89.9111 26.0005 89.5954 25.979 89.2915 25.9007C89.6196 25.488 89.6355 25.1123 89.1592 24.8424C89.0534 24.7789 88.937 24.7365 88.9264 24.5884L88.6512 24.7101C88.8205 25.3345 88.5189 25.7314 87.9686 26.1388C87.9584 25.7798 87.8997 25.4238 87.7939 25.0805C87.7028 25.1132 87.6089 25.138 87.5135 25.1546C86.8256 25.2445 86.7621 25.4139 87.2013 26.0171C87.2436 26.0806 87.3283 26.123 87.2489 26.25C86.8309 26.3029 86.3917 26.3558 85.9525 26.4246C85.7725 26.4246 85.4815 26.3452 85.4656 26.6363C85.4656 26.8426 85.6614 26.9749 85.8572 27.0596C86.0425 27.1536 86.2574 27.1707 86.4552 27.1072C87.5927 26.6937 88.8184 26.5842 90.0112 26.7897C90.2349 26.8057 90.4595 26.8057 90.6832 26.7897C90.8261 26.7897 90.9901 26.7897 91.0536 26.6363C91.1171 26.4828 91.0007 26.324 90.8896 26.2076Z" fill="white"/>
<path d="M89.9212 22.7416C89.7625 22.4135 89.4608 22.4558 89.1751 22.4558C89.0904 22.4558 88.9793 22.5087 88.9052 22.3659C89.0798 22.2336 89.265 22.1119 89.4344 21.9637C89.6037 21.8155 89.9318 21.6726 89.7836 21.3393C89.6354 21.0059 89.3285 21.08 89.0798 21.117C88.3707 21.2229 87.667 21.3657 86.9102 21.498C87.1894 21.875 87.5858 22.1487 88.0374 22.2759C87.5558 23.022 87.5558 23.022 86.9208 22.731C86.8891 23.5194 86.9208 24.2708 87.6828 24.7788C87.7516 24.8265 87.7675 24.9482 87.8045 25.0381H87.8839C88.1301 24.8877 88.4033 24.7871 88.6882 24.7418C88.7915 24.7017 88.8776 24.6269 88.9316 24.5301C89.1433 24.5301 89.4608 24.4772 89.3709 24.2497C89.2597 23.874 89.5032 23.7205 89.6725 23.53C89.8418 23.3395 90.0852 23.1067 89.9212 22.7416ZM88.0056 23.9851C87.9051 23.9851 87.8151 23.8211 87.8574 23.7523C87.9537 23.6436 88.0745 23.5595 88.2098 23.5071C88.3451 23.4546 88.491 23.4353 88.6353 23.4506C88.4554 23.7523 88.3443 24.0221 88.0056 24.0063V23.9851Z" fill="white"/>
<path d="M87.5241 15.8625C86.8838 15.9048 86.3758 15.8625 86.1429 15.2592C86.6034 15.3703 87.0879 15.3237 87.5188 15.1269C87.7252 15.0476 87.9792 14.9788 87.9844 14.7089C87.9897 14.439 87.7834 14.3226 87.5717 14.2273L86.9737 13.9786C87.4235 13.7934 87.7886 13.6558 88.1432 13.4918C88.2649 13.4389 88.4448 13.4389 88.4819 13.2696C88.5189 13.1002 88.4819 12.8251 88.8099 12.9097C89.138 12.9944 89.2756 13.3966 89.3391 13.7141C89.4026 14.0316 89.1751 14.0633 88.9687 14.1162C88.8241 14.1494 88.6773 14.1724 88.5295 14.185C88.6565 14.5554 88.9528 14.5078 89.2227 14.5184C89.4926 14.529 89.6672 14.5819 89.6831 14.8253C89.6989 15.0687 89.4185 15.0158 89.2703 15.0846C89.1221 15.1534 88.9899 15.1216 88.8523 15.164C88.7834 15.1871 88.7234 15.2311 88.6807 15.2899C88.6381 15.3487 88.6148 15.4194 88.6142 15.4921C88.6142 15.6826 88.7517 15.709 88.8946 15.7408C89.4238 15.8572 89.9529 15.9736 90.4821 16.1112C90.7169 16.1767 90.9439 16.2672 91.1594 16.3811C91.2917 16.4393 91.4293 16.5398 91.4029 16.6986C91.3764 16.8573 91.1859 16.8414 91.0483 16.8573C90.5038 16.8924 89.9589 16.7943 89.4608 16.5715C88.5718 16.2064 88.5665 16.217 88.3125 17.1007C88.0268 16.9261 88.085 16.5716 87.9368 16.3017C86.9261 16.9155 86.3969 18.1749 85.0793 18.4713L87.5241 15.8625Z" fill="white"/>
<path d="M89.0904 17.1059C88.8462 17.1216 88.6097 17.198 88.4025 17.3282C88.2422 17.4565 88.0389 17.5187 87.8343 17.5019C87.6296 17.4852 87.4391 17.3909 87.3018 17.2382C87.3442 17.9208 87.36 18.4288 87.4182 18.9368C87.4179 19.1038 87.4812 19.2646 87.5952 19.3865C87.7093 19.5084 87.8655 19.5822 88.0321 19.593C88.1704 19.6054 88.3042 19.649 88.4233 19.7205C88.5425 19.792 88.6439 19.8895 88.72 20.0057C89.0481 20.4132 89.4397 20.3127 89.5402 19.7888C89.6894 19.1105 89.7726 18.4194 89.7889 17.725C89.7889 17.2488 89.5455 17.0742 89.0904 17.1059ZM88.9105 19.5665C88.7729 19.3707 88.7147 19.1961 88.5877 19.1167C88.1485 18.8363 87.7304 18.5876 88.6777 18.5505C88.8893 18.5505 88.9211 18.3283 88.757 18.196C88.6172 18.1134 88.4655 18.0527 88.3072 18.0161C88.332 17.9536 88.3693 17.8968 88.4167 17.8491C88.464 17.8014 88.5206 17.7638 88.5829 17.7386C88.6452 17.7134 88.712 17.701 88.7792 17.7023C88.8464 17.7037 88.9127 17.7186 88.974 17.7462C89.2544 17.8415 89.1327 18.1325 89.1327 18.3389C89.1941 18.7614 89.1161 19.1924 88.9105 19.5665Z" fill="white"/>
<path d="M89.5402 8.07832C89.4185 8.07832 89.2968 8.07832 89.1751 8.11007C88.9105 8.11007 88.8999 8.0307 88.9687 7.78199C89.1433 7.16816 89.5349 7.02528 90.117 7.08349C90.3022 7.08349 90.6461 7.27928 90.6885 6.87182C90.7308 6.46436 90.3816 6.54903 90.1593 6.5702C89.7942 6.60195 89.6884 6.51199 89.8312 6.14157C89.8897 6.00769 89.8966 5.85694 89.8507 5.71826C89.8048 5.57958 89.7093 5.46274 89.5825 5.39016C89.4538 5.28786 89.2899 5.24049 89.1264 5.25832C88.9629 5.27616 88.8131 5.35776 88.7094 5.48541C88.796 5.51794 88.875 5.56771 88.9417 5.6317C89.0085 5.6957 89.0615 5.77259 89.0976 5.8577C89.1337 5.94281 89.1522 6.03437 89.1519 6.12683C89.1515 6.21929 89.1324 6.31072 89.0957 6.39557C89.0163 6.73424 88.7359 6.79774 88.4554 6.87182C88.339 6.90357 88.2437 6.97236 88.1961 6.77128C87.9897 5.9352 87.5982 5.6812 86.6351 5.76057C86.9102 6.14686 87.4341 6.58078 87.0796 6.97236C86.8635 7.22526 86.5604 7.38788 86.2302 7.42805C85.9 7.46823 85.5667 7.38303 85.2963 7.18932C85.5079 8.0254 85.8942 8.24765 86.5345 7.87724C86.7092 7.7767 86.9314 7.5809 87.0637 7.68145C87.5929 8.03599 87.831 7.88253 87.9897 7.31632C88.0691 7.03057 88.3866 7.09936 88.5718 7.18403C88.757 7.2687 88.6036 7.46978 88.5348 7.59678C88.39 7.90245 88.1668 8.16434 87.888 8.35581C87.6091 8.54727 87.2846 8.6615 86.9473 8.68686C86.6986 8.95144 86.9473 9.00436 87.1166 9.02553C87.4923 9.07315 87.5982 9.17899 87.4235 9.55469C87.3595 9.75035 87.3512 9.96002 87.3999 10.1601C87.4485 10.3601 87.552 10.5427 87.6987 10.6871C87.9739 11.0311 88.3019 10.7718 88.6036 10.6871C88.9845 10.3475 89.243 9.89186 89.3391 9.39065C89.3307 9.32379 89.3069 9.25981 89.2694 9.20377C89.232 9.14773 89.182 9.10118 89.1235 9.06781C89.065 9.03443 88.9995 9.01514 88.9322 9.01148C88.8649 9.00781 88.7977 9.01987 88.7359 9.04669L88.1379 9.24248C88.3194 8.95595 88.5879 8.73508 88.904 8.61223C89.2202 8.48939 89.5674 8.47103 89.8947 8.55986C90.0746 8.64982 90.0958 8.79798 90.1223 8.96203C90.2222 9.69008 90.1918 10.4301 90.0323 11.1475C89.9371 11.6026 89.609 11.719 89.2756 11.3856C89.1202 11.1968 88.9015 11.0707 88.6602 11.0308C88.4188 10.9909 88.1712 11.0399 87.9633 11.1686C87.5823 11.3644 87.3336 11.1686 87.2172 10.8141C87.1007 10.4596 86.9949 10.0362 86.8944 9.63936C86.8563 9.40634 86.7578 9.18738 86.6086 9.00436H86.5822L86.4922 9.40123C86.495 9.42408 86.495 9.44718 86.4922 9.47002C86.4922 9.52823 86.4657 9.58644 86.4446 9.64465C86.4446 9.9304 86.4446 10.2162 86.4816 10.4966C86.6245 11.6661 87.1484 12.0841 88.1538 11.7349C88.3549 11.6478 88.5769 11.621 88.7929 11.6576C89.0089 11.6943 89.2097 11.7928 89.3709 11.9412C89.9 12.3593 90.3181 12.1952 90.498 11.5285C90.7068 10.7807 90.8136 10.0082 90.8155 9.2319C90.7996 8.37465 90.4609 8.04657 89.5402 8.07832ZM88.6565 9.59703C88.7412 9.71874 88.5559 10.4066 88.2596 10.4701C87.9633 10.5336 87.868 9.88277 87.868 9.88277C87.868 9.88277 88.5665 9.47003 88.6565 9.59703Z" fill="white"/>
<path d="M231.267 51.941L231.505 52.2744L231.743 52.5495L231.859 52.4384L231.923 52.5495L232.097 52.2744L232.457 52.9358L233.352 53.4914C234.14 54.4863 234.442 54.9096 234.241 54.7614C234.849 55.502 235.218 56.4099 235.299 57.3649C235.299 57.7724 235.257 58.3439 235.177 59.0794C235.1 60.6669 235.08 61.8117 235.119 62.5137C235.198 63.7678 235.235 64.6304 235.235 65.059C235.278 65.6189 235.219 66.1818 235.061 66.7206C235.109 66.9935 235.139 67.2692 235.151 67.5461C235.151 67.9165 235.177 68.234 235.177 68.488C235.199 68.7395 235.168 68.9928 235.086 69.2316C235.004 69.4704 234.873 69.6893 234.701 69.8744C234.585 70.0226 234.346 70.2819 233.987 70.647C233.643 71.009 233.241 71.3097 232.796 71.536L231.669 71.8641C231.346 71.9011 230.722 71.6259 229.79 71.0333C228.859 70.4406 228.256 70.0755 227.975 69.9273C227.412 69.1003 226.944 68.2128 226.578 67.2815C226.253 66.228 226.043 65.1421 225.954 64.043C225.907 63.5665 225.887 63.0877 225.896 62.609C225.918 61.422 226.017 60.2377 226.192 59.0636L226.43 57.5713C226.485 57.0878 226.565 56.6074 226.668 56.132C226.837 55.5833 227.056 55.0518 227.324 54.5445L228.097 53.719L228.87 53.2163L229.108 52.9993C229.341 52.8256 229.602 52.6932 229.88 52.6077L229.938 52.4966C230.135 52.2912 230.381 52.1399 230.653 52.0574L230.833 52.1103L231.013 51.8351L231.267 51.941ZM231.002 42.7652L231.166 42.707C231.865 42.9082 232.528 43.219 233.129 43.6278C233.323 43.8649 233.53 44.091 233.748 44.3051C233.955 44.4971 234.122 44.7271 234.241 44.9824C234.326 45.2181 234.367 45.4674 234.362 45.718C234.294 46.4087 234.115 47.084 233.833 47.7182C233.566 48.4439 233.252 49.151 232.891 49.8349C232.28 50.0315 231.648 50.1558 231.007 50.2053C230.223 49.9703 229.456 49.6821 228.711 49.3428C228.353 49.0315 228.037 48.6758 227.769 48.2844C227.525 47.8166 227.372 47.3065 227.319 46.7816C227.254 46.499 227.225 46.209 227.234 45.9191C227.298 45.2319 227.494 44.5636 227.811 43.9506L227.975 44.1993L228.467 43.8924L228.547 43.522H228.795C229.012 43.4373 229.176 43.0933 229.288 42.4636C229.515 42.5863 229.766 42.6602 230.023 42.6806C230.347 42.7353 230.674 42.7636 231.002 42.7652Z" fill="black"/>
<path d="M194.045 42.4107C194.482 42.3954 194.919 42.4148 195.352 42.4689C195.536 42.5042 195.61 42.5042 195.574 42.4689C196.073 42.4803 196.568 42.5478 197.051 42.67C197.528 42.7579 197.977 42.9614 198.358 43.2627C199.497 44.2469 200.293 44.7761 200.744 44.8502C200.858 44.8511 200.971 44.8599 201.083 44.8766C201.362 44.9592 201.622 45.0939 201.85 45.2735C202.4 45.6829 202.921 46.1283 203.411 46.607L204.946 48.0252L205.57 48.5543L206.533 49.5174C208.033 48.2297 209.625 47.0536 211.296 45.9984L211.518 45.718L215.72 42.9928C215.864 42.8574 216.051 42.7769 216.249 42.7652L216.646 42.9928L216.815 42.9346L216.932 43.0457L217.212 42.8499L217.614 43.305L217.836 43.1886L217.895 43.3632L218.239 43.5907C218.591 44.0711 218.86 44.6079 219.032 45.1782C219.143 45.5676 219.219 45.9661 219.26 46.3689C219.222 46.5779 219.133 46.7743 219.001 46.9404C218.812 47.2464 218.651 47.5687 218.519 47.9034L217.99 48.3585L216.963 49.6074L214.847 51.3113L214.397 51.8775L212.979 53.2004L212.582 53.6555L212.296 53.7666L212.069 54.0524L210.624 55.5499L211.529 56.6823C211.749 57.1097 212.017 57.5109 212.328 57.8782C212.402 58.0264 212.645 58.4074 213.063 59.0688C213.463 59.6795 213.805 60.3262 214.085 61.0003C214.287 61.4764 214.514 61.941 214.767 62.392C214.952 62.7707 215.181 63.126 215.45 63.4503L215.619 63.5085C215.833 63.7675 216.011 64.054 216.148 64.3605C216.148 64.4346 216.222 64.4716 216.371 64.4716C216.487 64.6992 216.656 65.0008 216.9 65.3818L217.582 66.5195L218.487 68.2763C218.451 68.3303 218.437 68.3959 218.448 68.4599C218.459 68.5238 218.494 68.5812 218.546 68.6203C218.647 68.7766 218.689 68.9648 218.662 69.1495C218.648 69.3376 218.588 69.5194 218.487 69.6786C218.388 69.8359 218.348 70.0238 218.376 70.2078L218.318 70.4353C218.256 70.6174 218.18 70.7943 218.09 70.9645C217.981 71.1852 217.887 71.4133 217.81 71.6471L217.641 71.7053L217.297 72.7266L217.069 72.6684C216.937 72.8072 216.784 72.9234 216.614 73.0124L216.085 72.8959L215.916 73.0653C215.848 73.1384 215.767 73.1965 215.675 73.2357C215.584 73.2749 215.486 73.2944 215.386 73.2928C215.263 73.2914 215.139 73.2826 215.016 73.2664C214.939 73.2537 214.86 73.2602 214.787 73.2851C214.713 73.31 214.646 73.3526 214.593 73.4092C214.116 73.2548 213.65 73.0656 213.201 72.843C212.75 72.583 212.322 72.2856 211.92 71.954L211.121 70.9857C210.555 70.266 210.063 69.6045 209.592 69.0013C209.285 68.5832 208.661 67.6202 207.719 66.1015C207.189 65.1088 206.58 64.1603 205.898 63.2651L205.369 63.3763C204.678 63.9586 204.118 64.6798 203.724 65.4929L203.607 65.5511L203.321 65.8369C203.192 65.9905 203.04 66.1242 202.872 66.2338H202.755C202.566 66.2397 202.383 66.2983 202.226 66.4031C201.974 66.5256 201.743 66.6883 201.543 66.8846C201.293 67.0998 201.004 67.265 200.691 67.3715L200.348 67.9377L200.295 67.8795L199.951 67.8212L199.781 68.0488C199.701 68.0518 199.622 68.0711 199.549 68.1057C199.476 68.1403 199.411 68.1893 199.358 68.2499C199.264 68.3601 199.132 68.4302 198.988 68.4457C198.79 68.4245 198.598 68.3671 198.421 68.2763L198.194 67.9959L198.077 68.107C197.951 68.0965 197.826 68.068 197.707 68.0223C197.589 67.979 197.46 67.979 197.342 68.0223C196.908 67.1974 196.674 66.282 196.659 65.35C196.616 64.8793 196.759 64.4104 197.056 64.043C197.288 63.1862 197.593 62.3506 197.966 61.5453C198.339 60.6455 198.776 59.7736 199.273 58.9365C199.516 58.5182 199.725 58.0811 199.898 57.6295C200.06 57.2015 200.249 56.7844 200.464 56.3807L200.633 56.2696L200.919 55.6398L200.972 55.5287C201.021 55.4804 201.061 55.4229 201.088 55.3594C201.127 55.2805 201.147 55.1935 201.147 55.1054C201.139 54.9923 201.098 54.8838 201.03 54.7932C200.311 53.6111 199.495 52.4907 198.591 51.4436C197.592 50.1973 196.51 49.0199 195.352 47.9193C194.695 47.2901 194.069 46.6277 193.479 45.9349C193.186 45.5764 192.92 45.1961 192.685 44.7972C192.603 44.6566 192.545 44.5026 192.516 44.3422C192.48 44.1396 192.403 43.9467 192.288 43.776L192.458 43.8342L192.516 43.6648L192.23 43.4373C192.397 43.4317 192.557 43.3702 192.685 43.2627L192.913 42.924L193.251 42.8129L193.368 42.6382L194.045 42.4107Z" fill="black"/>
<path d="M262.937 65.8581C262.932 65.9536 262.899 66.0456 262.842 66.1226C262.797 66.1985 262.743 66.2695 262.683 66.3343L262.747 66.4507L262.62 66.6888C262.596 66.7122 262.579 66.7405 262.568 66.7716C262.557 66.8028 262.553 66.8359 262.556 66.8688C262.542 67.0462 262.519 67.2228 262.487 67.3979C262.445 67.6537 262.445 67.9147 262.487 68.1705L262.297 68.3504L262.424 68.9484C262.429 69.1095 262.407 69.2704 262.36 69.4246L262.297 69.7792L262.36 69.8374C262.258 70.016 262.128 70.1768 261.974 70.3136L261.397 70.4353L260.942 69.9591L259.852 69.4299L258.434 68.5938L256.952 67.2286L256.693 67.1069L256.376 67.4667L255.407 68.0594L255.021 68.4139C254.381 68.6944 253.64 68.9748 252.798 69.25C252.379 69.4326 251.935 69.5521 251.481 69.6045C251.188 69.6861 250.885 69.7271 250.581 69.7263C250.461 69.6618 250.33 69.6205 250.195 69.6045C249.978 69.6087 249.763 69.6299 249.549 69.668C249.294 69.7058 249.035 69.7253 248.777 69.7263C248.448 69.7223 248.122 69.6614 247.814 69.5463L247.232 69.4299L246.136 69.0701C245.514 68.8392 244.929 68.5183 244.401 68.1176C243.871 67.745 243.376 67.3271 242.919 66.8688C242.336 66.2299 241.838 65.5184 241.437 64.7521L241.051 63.9795C240.453 62.5508 240.151 61.8152 240.151 61.7782C240.194 61.6421 240.194 61.4962 240.151 61.3601C240.094 61.1682 240.072 60.9673 240.088 60.7675C240.09 60.2674 240.132 59.7684 240.215 59.2752C240.278 58.8487 240.386 58.4301 240.538 58.0264C240.753 57.4725 241.268 56.3807 242.083 54.7509C242.861 53.6542 243.769 52.6556 244.787 51.7769C246.046 50.9035 247.369 50.127 248.745 49.4539C250.191 48.6663 251.741 48.0856 253.349 47.7288C253.538 47.6842 253.732 47.6646 253.926 47.6706C254.889 47.7336 255.841 47.9113 256.762 48.1998C257.025 47.9623 257.209 47.6504 257.291 47.3055L257.677 47.1309L258.254 46.4747L258.386 46.4165L260.186 47.1891C260.834 48.5739 261.31 50.0329 261.604 51.5335L261.8 53.2004V53.8566C261.842 54.0947 261.874 54.354 261.895 54.6292C261.889 54.7931 261.922 54.9562 261.99 55.1054L262.117 56.6506C262.104 56.9694 262.126 57.2887 262.181 57.6031C262.228 57.9206 262.27 58.3598 262.313 58.9154C262.358 59.2667 262.358 59.6224 262.313 59.9737C262.397 60.6881 262.461 61.1273 262.503 61.2861C262.508 61.3556 262.519 61.4247 262.535 61.4924C262.556 61.5912 262.546 61.66 262.503 61.6988C262.509 62.0384 262.532 62.3775 262.572 62.7148C262.61 63.1346 262.673 63.5517 262.763 63.9636C262.919 64.4027 262.962 64.8739 262.89 65.3342C262.847 65.4685 262.847 65.6126 262.89 65.7469L262.937 65.8581ZM255.667 65.3289C254.979 63.2122 254.677 61.7235 254.762 60.8627C254.677 59.9102 254.635 59.1376 254.635 58.5397C254.622 57.3179 254.688 56.0966 254.83 54.8832C254.957 53.8672 255.021 53.3433 255.021 53.2957C255.121 53.1263 255.167 52.9308 255.153 52.7347C255.134 52.5818 255.155 52.4264 255.217 52.285L255.021 51.9886C254.569 51.664 254.032 51.4799 253.476 51.4595L252.899 51.4012C252.616 51.3976 252.334 51.4368 252.063 51.5177C251.532 51.6266 251.021 51.8176 250.549 52.0839C250.092 52.3459 249.651 52.6339 249.227 52.9464L248.263 53.6608C247.406 54.6133 246.888 55.2059 246.718 55.4441C246.417 55.9203 246.332 56.1796 246.459 56.2219C246.098 56.8262 245.797 57.4642 245.559 58.1269C245.387 58.6384 245.299 59.1747 245.3 59.7144C245.341 60.2954 245.428 60.8722 245.559 61.4395C245.729 62.0375 245.872 62.4979 245.977 62.8101C246.111 63.1825 246.289 63.5378 246.507 63.8684L247.152 64.9267L247.412 65.0484L247.941 65.5776C248.876 66.0678 249.912 66.3324 250.968 66.3502C251.899 66.321 252.826 66.2023 253.735 65.9956C254.894 65.7998 255.534 65.5617 255.667 65.3236V65.3289ZM261.588 51.5177L261.524 51.0414C261.651 51.7152 261.673 51.8722 261.588 51.5124V51.5177Z" fill="black"/>
<path d="M267.98 49.2951C268.927 54.4598 268.134 59.4022 266.393 64.2917L272.901 65.1701C272.901 62.5243 274.558 60.3653 276.256 58.4444C277.595 56.9416 279.892 53.6819 282.21 53.9782C284.527 54.2746 284.496 59.1429 284.66 60.9738C284.929 63.9636 284.66 66.4666 286.363 69.0595C286.924 69.9114 288.422 70.393 289.173 69.4246C292.105 65.6464 291.417 60.3335 290.142 55.9256C289.052 52.1526 286.967 48.459 282.601 48.2315C278.495 48.0198 275.288 50.7927 272.505 53.4491C269.118 56.6823 266.356 60.3282 266.271 65.1701C266.208 69.1177 271.515 69.4034 272.78 66.0538C274.976 60.233 274.669 53.7825 272.457 48.0622C272.28 47.4816 271.884 46.9931 271.352 46.7006C270.82 46.4081 270.195 46.3347 269.61 46.4961C269.025 46.6575 268.526 47.041 268.22 47.5648C267.914 48.0886 267.824 48.7114 267.97 49.3004L267.98 49.2951Z" fill="black"/>
<path d="M323.162 51.7505C323.881 49.4909 320.352 47.9352 319.283 50.1153C318.369 52.0176 317.895 54.1011 317.896 56.2113H317.822C314.859 57.4231 312.843 60.0213 309.747 60.9738C307.101 61.8046 303.926 61.1273 302.519 58.5344C301.048 55.8515 303.302 53.2692 305.44 51.7981C308.752 49.5174 312.816 48.9776 316.716 49.7661C319.775 50.3799 320.987 46.0619 318.008 45.0777C312.504 43.2415 305.604 43.3103 300.688 46.7393C295.925 50.073 293.116 55.9626 295.603 61.5877C297.947 66.8793 304.239 69.885 309.848 68.7102C313.023 68.0488 316.552 65.9374 318.479 63.064C318.828 66.6359 318.547 69.7104 315.478 72.4038C312.245 75.2507 307.541 75.764 303.429 75.4836C299.926 75.2454 297.132 73.8961 294.169 72.2345C293.057 71.6101 292.004 72.4356 291.861 73.5627C291.274 78.177 296.317 81.3203 300.27 82.2093C305.71 83.4316 311.832 82.8337 316.738 80.0926C321.124 77.6426 324.342 73.2558 324.823 68.2022C325.347 62.6989 321.458 57.1374 323.162 51.7505Z" fill="black"/>
<path d="M397.965 47.1944C396.699 46.2357 395.194 45.6424 393.615 45.4791C392.035 45.3158 390.441 45.5888 389.006 46.2684C388.691 45.8078 388.225 45.4725 387.688 45.3212C380.364 43.2574 373.528 52.7983 373.443 59.3493C373.337 67.816 382.439 71.6948 389.694 69.9697C396.642 68.3187 401.06 61.6248 400.965 54.6821C400.923 51.8722 400.261 49.0042 397.965 47.1944ZM397.748 55.1319C397.378 57.1478 396.444 59.0172 395.052 60.522C393.661 62.0267 391.87 63.1048 389.889 63.6303C386.831 64.3976 380.841 63.9055 380.364 59.8521C380.005 56.8676 383.703 50.1154 387.011 50.4329C387.513 50.4978 388.022 50.3831 388.448 50.1091C388.874 49.8351 389.19 49.4194 389.339 48.9354C390.89 49.147 392.424 48.9354 394.012 49.11C397.298 49.4539 398.277 52.1262 397.748 55.1213V55.1319Z" fill="black"/>
<path d="M441.155 58.4127C438.197 58.6879 435.144 61.1749 432.688 58.2434C431.164 56.4336 430.963 51.5282 432.456 49.6232C433.514 48.3056 432.223 46.2736 430.577 47.1891C429.233 47.9667 428.075 49.0298 427.187 50.3034C426.298 51.5771 425.699 53.0302 425.434 54.5604C425 54.9784 424.566 55.3964 424.137 55.8251C422.343 57.6031 419.983 60.1642 417.549 61.0162C411.94 62.9688 411.628 52.8776 413.384 49.9037C414.972 47.2579 411.321 44.4533 409.151 46.6229C402.547 53.1581 404.447 66.673 414.215 68.9907C419.221 70.176 424.026 67.2551 427.296 63.0111C428.338 64.3799 429.698 65.474 431.258 66.1987C432.818 66.9235 434.532 67.257 436.25 67.1704C439.668 66.9481 443.515 64.5669 443.658 60.9051C443.695 59.6456 442.452 58.291 441.155 58.4127Z" fill="black"/>
<path d="M144.632 47.6124C144.632 47.1996 144.573 46.6969 144.531 46.1043L144.325 44.866C144.229 43.6754 144.187 43.1251 144.187 43.215C144.04 42.6738 143.925 42.1243 143.843 41.5693C143.796 41.3418 143.748 41.1354 143.706 40.9502C143.661 40.7773 143.638 40.5996 143.637 40.421L143.706 39.4632C143.748 38.7277 143.473 37.5847 142.88 36.0237L141.917 34.3092C141.679 34.1557 141.467 34.0287 141.266 33.9123L141.097 33.7482C140.871 33.5519 140.606 33.4067 140.319 33.3227C140.032 33.2387 139.731 33.2179 139.435 33.2617C139.139 33.3054 138.857 33.4127 138.606 33.5762C138.356 33.7397 138.144 33.9554 137.985 34.2086L137.663 34.034C137.617 34.8886 137.502 35.7381 137.319 36.574C137.234 37.0395 137.176 37.5095 137.144 37.9816C137.075 38.7383 137.043 39.4844 137.043 40.2146C137.025 40.6744 137.048 41.1348 137.112 41.5905C137.065 41.908 137.017 42.3895 136.975 43.0298C136.932 43.6701 136.879 44.0881 136.837 44.3368C136.818 44.9833 136.749 45.6272 136.631 46.263L136.493 48.0463C136.493 47.7288 136.493 47.7711 136.456 48.1839C136.419 48.5966 136.398 49.1681 136.356 49.9037L133.334 49.147C132.598 48.9618 131.514 48.6972 130.069 48.3585C129.129 48.1141 128.177 47.918 127.217 47.7711L121.862 46.9456C121.859 46.9175 121.859 46.8891 121.862 46.861C122.005 44.4109 122.269 41.9133 122.063 39.4527C121.989 38.5319 121.883 37.4736 121.698 36.4311L121.608 35.4945C121.559 35.0086 121.606 34.5179 121.745 34.0499C121.893 33.8541 121.867 33.5207 121.682 33.0656C121.798 32.4941 121.878 32.0073 121.936 31.658C122.396 28.8958 119.11 27.4247 117.448 29.7689C117.343 29.9118 117.231 30.0811 117.11 30.2981C117.071 30.2808 117.035 30.2576 117.004 30.2293C116.799 30.6121 116.546 30.9677 116.252 31.2876L115.977 31.494L115.289 32.2507C115.196 32.3859 115.126 32.5363 115.083 32.6952C115 32.9274 114.884 33.1465 114.739 33.3461L114.326 34.1716L114.025 34.9124C113.887 35.2775 113.728 35.8067 113.543 36.4999C113.395 36.9924 113.302 37.5001 113.268 38.0133C113.164 38.8924 113.003 39.7639 112.786 40.6221C112.2 43.0162 111.788 45.4497 111.553 47.9034C111.283 48.9439 111.106 50.0064 111.024 51.0784C110.911 52.3802 110.855 53.5584 110.855 54.6132L110.924 55.9203C110.979 56.4476 111.001 56.9777 110.993 57.5078C111.008 57.7871 111.054 58.0639 111.13 58.3333C111.22 58.7037 111.31 59.1588 111.405 59.7091C111.727 61.0451 112.211 62.337 112.845 63.5562C113.589 64.937 114.489 66.2278 115.528 67.4032C117.538 69.1882 118.958 70.1037 119.787 70.1496L120.676 70.2871C121.018 70.3325 121.363 70.3555 121.708 70.3559C121.985 70.3623 122.262 70.3392 122.534 70.2871C122.871 70.2679 123.2 70.1739 123.497 70.012L123.629 69.5304C123.496 69.3867 123.424 69.197 123.428 69.0013C123.431 68.9502 123.431 68.8989 123.428 68.8478C123.672 68.5294 123.839 68.1585 123.915 67.7645C123.991 67.3706 123.975 66.9642 123.867 66.5777C123.338 64.2864 122.782 62.0322 122.354 59.6985C122.225 58.8077 122.049 57.9244 121.825 57.0527C121.825 56.4971 121.825 55.9256 121.788 55.3488C121.756 54.2446 121.735 53.1404 121.724 52.0362C126.398 52.0362 129.279 51.8986 130.365 51.6235L131.805 51.4859C132.101 51.4401 132.4 51.4171 132.699 51.4171C132.93 51.428 133.162 51.4048 133.387 51.3483C133.627 51.1782 133.913 51.0825 134.207 51.0731C134.692 51.0683 135.175 51.0223 135.652 50.9355C135.789 51.0731 135.858 51.6341 135.858 52.6183V54.2322C135.857 54.4108 135.834 54.5886 135.789 54.7614C135.746 54.9184 135.723 55.0802 135.72 55.243V56.3013L135.652 60.0055C135.652 60.2926 135.629 60.5792 135.583 60.8627C135.539 61.1233 135.516 61.3869 135.514 61.6512V61.8999L135.583 62.863L135.652 63.5509V63.826C135.767 64.5172 135.93 65.1997 136.139 65.8686C135.847 66.9693 136.488 68.4192 137.842 68.2816C140.552 68.0011 142.319 65.6358 143.235 63.1328L143.415 63.0693C143.457 62.8418 143.653 62.1327 143.997 60.9527C144.269 60.1525 144.447 59.323 144.526 58.4815C144.517 58.2046 144.54 57.9275 144.595 57.656C144.647 57.3858 144.67 57.1108 144.663 56.8357L144.796 49.8984C144.893 49.4649 144.871 49.0134 144.732 48.5913C144.674 48.268 144.641 47.9408 144.632 47.6124Z" fill="black"/>
<path d="M171.667 63.535C171.609 63.1126 171.587 62.6859 171.603 62.2597V61.3019C171.616 60.2796 171.557 59.2576 171.429 58.2434C171.355 58.0394 171.314 57.8251 171.307 57.6084C171.313 57.2332 171.354 56.8595 171.429 56.4918C171.51 56.1438 171.51 55.7816 171.429 55.4335C171.377 55.2913 171.355 55.14 171.365 54.989C171.358 54.5616 171.319 54.1353 171.249 53.7137C171.249 53.5867 171.238 53.3645 171.217 53.047C171.192 52.8015 171.203 52.5538 171.249 52.3114C171.304 52.04 171.324 51.7625 171.307 51.4859C171.201 51.009 171.062 50.5404 170.889 50.0836C170.561 49.3647 170.162 48.6804 169.698 48.0411L168.926 47.7871L168.688 47.5331L168.629 47.6601L168.746 47.8506L168.391 48.1046C168.312 47.9352 168.291 47.8294 168.333 47.7871H168.095L168.031 48.1681C167.953 48.266 167.854 48.3456 167.742 48.4013C167.629 48.4571 167.506 48.4876 167.38 48.4908C166.69 49.498 166.083 50.5598 165.565 51.6658C165.386 52.1527 165.033 53.4368 164.507 55.5182C164.136 57.2994 163.976 59.1182 164.031 60.9368C164.008 62.2164 164.088 63.4958 164.269 64.7627C163.577 65.1417 162.848 65.4501 162.094 65.6834C161.318 65.9457 160.506 66.085 159.686 66.0962C159.301 66.0979 158.918 66.0335 158.554 65.9057C158.223 65.7894 157.886 65.694 157.543 65.6199C157.052 65.5263 156.597 65.2951 156.231 64.9532C155.83 64.4606 155.546 63.8834 155.4 63.2652C155.115 62.3615 154.915 61.4332 154.802 60.4923C154.669 59.7333 154.589 58.9659 154.564 58.1957C154.573 57.8982 154.553 57.6006 154.506 57.3068C154.469 56.9037 154.469 56.498 154.506 56.095C154.543 55.6293 154.564 55.2642 154.564 55.0102C154.552 54.6685 154.573 54.3264 154.628 53.9889C154.7 53.6979 154.739 53.3997 154.744 53.0999C154.628 53.1845 154.617 52.994 154.712 52.5231C154.802 52.1483 154.853 51.7653 154.866 51.3801L154.802 51.1208C154.845 50.9515 154.961 50.5281 155.162 49.8508C155.319 49.4219 155.4 48.9688 155.4 48.512C155.312 47.8758 155.088 47.2659 154.744 46.7234C154.548 46.5292 154.3 46.3967 154.03 46.3424H153.913C153.845 46.3928 153.76 46.4154 153.675 46.4059C153.526 46.4094 153.379 46.3649 153.257 46.2789L152.897 46.9192L152.601 47.1732C151.985 47.916 151.538 48.7848 151.294 49.7185C150.934 50.9938 150.765 51.7188 150.696 51.8881C150.591 52.3238 150.452 52.7503 150.278 53.1634C149.969 54.062 149.76 54.9919 149.653 55.9362C149.501 56.9172 149.413 57.9071 149.389 58.8995C149.406 59.1971 149.387 59.4958 149.331 59.7885C149.279 59.9979 149.258 60.2135 149.267 60.4288C149.309 60.4288 149.347 60.5664 149.389 60.8416C149.424 61.0835 149.444 61.3274 149.447 61.5718L149.505 62.2756C149.539 63.1444 149.7 64.0037 149.982 64.8262C150.227 65.5672 150.557 66.2774 150.966 66.9429C151.421 67.7101 151.728 68.2181 151.887 68.4721C152.399 69.1073 153.066 69.6009 153.823 69.9062C154.471 70.1959 155.168 70.3576 155.876 70.3824C156.197 70.372 156.516 70.3294 156.829 70.2554C157.124 70.1946 157.423 70.1522 157.723 70.1284C158.18 70.1453 158.635 70.0697 159.062 69.9062C159.428 69.7515 159.823 69.6758 160.221 69.6839C161.042 69.4927 161.827 69.1692 162.544 68.7261L162.84 68.5992C162.877 68.5992 163.433 68.197 164.507 67.3874L164.803 67.6414L165.518 69.3029C165.748 69.6153 166.042 69.8751 166.38 70.0649C166.73 70.3328 167.163 70.4678 167.603 70.4459L168.132 70.5094L168.608 70.3189L168.725 70.2554C169.007 70.4997 169.367 70.6365 169.741 70.6417L169.857 70.0649H170.571L170.751 69.6839L170.693 69.6204C170.847 69.3664 170.899 69.1706 170.841 69.0436C170.777 68.9045 170.746 68.7523 170.751 68.5992L171.048 68.2182L171.407 68.1547C171.564 67.8339 171.665 67.4883 171.704 67.1334L171.762 66.5619L171.82 66.2444C171.813 66.1125 171.835 65.9807 171.884 65.8581C171.873 65.4758 171.843 65.0943 171.794 64.7151C171.751 64.17 171.704 63.789 171.667 63.535Z" fill="black"/>
<path d="M186.483 61.847C186.446 61.1432 186.483 60.0002 186.542 58.4127C186.621 57.6772 186.663 57.1057 186.663 56.6982C186.58 55.7437 186.212 54.8363 185.605 54.0947C185.806 54.2429 185.51 53.8195 184.716 52.8247L183.822 52.2955L183.467 51.6341L183.287 51.9092L183.229 51.7981L183.107 51.9092L182.869 51.6341L182.631 51.3007L182.393 51.1896L182.213 51.4647L182.038 51.4118C181.765 51.493 181.518 51.6466 181.324 51.8563L181.261 51.9674C180.983 52.0507 180.721 52.1814 180.488 52.3537L180.25 52.576L179.477 53.0734L178.705 53.9042C178.436 54.4111 178.216 54.9427 178.048 55.4917C177.945 55.9671 177.865 56.4475 177.81 56.931L177.572 58.4233C177.397 59.5974 177.298 60.7817 177.276 61.9687C177.268 62.4492 177.287 62.9298 177.334 63.408C177.423 64.5071 177.633 65.593 177.959 66.6465C178.325 67.5774 178.794 68.4647 179.356 69.2923C179.636 69.4405 180.239 69.8215 181.171 70.4036C182.102 70.9857 182.732 71.2714 183.049 71.2291L184.181 70.901C184.624 70.672 185.027 70.3716 185.372 70.012C185.727 69.6469 185.965 69.3876 186.081 69.2394C186.253 69.0543 186.384 68.8354 186.466 68.5966C186.548 68.3578 186.579 68.1045 186.557 67.853C186.557 67.599 186.557 67.2815 186.557 66.9164C186.546 66.6378 186.516 66.3603 186.468 66.0856C186.628 65.5474 186.689 64.9842 186.647 64.424C186.605 63.9478 186.563 63.1011 186.483 61.847Z" fill="black"/>
<path d="M179.112 47.6123C179.381 48.0025 179.698 48.358 180.054 48.6707C180.798 49.0123 181.566 49.3005 182.351 49.5332C182.991 49.4842 183.623 49.3599 184.234 49.1628C184.595 48.4789 184.91 47.7718 185.176 47.0461C185.458 46.4119 185.637 45.7366 185.706 45.0459C185.711 44.7953 185.669 44.5459 185.584 44.3103C185.464 44.0557 185.297 43.826 185.092 43.633C184.873 43.4202 184.668 43.194 184.478 42.9557C183.874 42.5483 183.209 42.2377 182.509 42.0349L182.345 42.0984C182.015 42.0933 181.686 42.0614 181.361 42.0032C181.104 41.9828 180.854 41.9108 180.625 41.7915C180.514 42.4053 180.35 42.7546 180.133 42.8498H179.885L179.805 43.2203L179.313 43.5272L179.149 43.2785C178.836 43.8925 178.642 44.5605 178.578 45.247C178.57 45.5366 178.596 45.8262 178.657 46.1095C178.715 46.6341 178.87 47.1435 179.112 47.6123Z" fill="black"/>
<path d="M370.474 43.9558C368.03 36.5475 361.711 32.2771 354.192 30.97C348.837 30.0387 343.439 31.2399 338.074 31.2135C337.346 31.1858 336.629 31.3957 336.031 31.8114C335.888 31.6844 335.75 31.5468 335.602 31.4251C331.977 28.4406 326.765 33.4201 330.358 36.6692C333.951 39.9182 334.565 47.1466 334.856 51.7345C335.28 58.365 333.845 64.4345 332.909 70.9009C332.575 73.171 334.909 74.7162 336.761 73.1446C342.931 67.8952 343.942 58.5502 343.175 50.9831C342.762 46.9561 342.037 42.1672 340.28 38.0397C348.091 38.4789 358.616 36.9073 362.378 45.1729C363.298 47.3087 363.613 49.6561 363.291 51.959C362.968 54.262 362.019 56.4321 360.547 58.2327C356.944 62.6671 351.123 63.3285 347.318 67.2285C347.1 67.4522 346.935 67.7223 346.836 68.0186C346.737 68.3148 346.707 68.6296 346.746 68.9395C346.786 69.2493 346.895 69.5461 347.066 69.8079C347.236 70.0696 347.463 70.2895 347.731 70.4511C353.901 73.9383 362.177 68.6731 366.252 63.9318C370.903 58.4655 372.75 50.8667 370.474 43.9558Z" fill="black"/>
</svg>
