<svg width="444" height="93" viewBox="0 0 444 93" fill="none" xmlns="http://www.w3.org/2000/svg">
<path d="M83.5318 17.3117C83.5318 14.4049 83.5318 11.4982 83.5318 8.59148C83.5318 6.5277 84.1277 5.94151 85.7748 6.00449C87.1846 6.05778 88.5992 6.07232 90.0041 6.00449C91.2153 5.9512 91.7627 6.6149 91.816 8.05374C91.9032 10.6698 92.0437 13.2858 92.1164 15.9019C92.2036 18.9637 92.2326 22.0254 92.3101 25.1066C92.378 27.7032 91.7143 28.5365 89.6117 28.4977C87.8483 28.4977 86.0801 28.5946 84.3215 28.4541C83.9921 28.4541 83.4592 27.4852 83.4446 27.0008C83.3623 23.7743 83.401 20.543 83.401 17.3117H83.5318Z" fill="#BF674D"/>
<path fill-rule="evenodd" clip-rule="evenodd" d="M23.4579 30.6802C23.7075 30.667 23.9576 30.6938 24.1988 30.7596C24.1704 30.8814 24.1421 30.9972 24.1147 31.1092C24.0397 31.4157 23.9715 31.6942 23.9289 31.9926C23.3098 35.157 25.2518 37.3742 28.4268 37.1731C29.0116 37.174 29.5911 37.2835 30.136 37.4959C31.2631 37.8663 32.2315 37.7658 32.9988 36.7604C33.4348 36.3048 33.8264 35.8086 34.1682 35.2787C34.5575 34.6032 34.7907 33.8493 34.8509 33.0721C34.8 31.6519 34.648 30.2372 34.3958 28.8387C34.2794 28.0979 34.4805 27.7381 35.2372 27.6005C35.8718 27.4847 36.6741 27.4395 37.4869 27.3938C38.382 27.3435 39.2897 27.2924 39.9997 27.1454C41.4846 26.8359 43.0741 26.3788 44.6601 25.9227C46.1655 25.4897 47.6679 25.0577 49.0748 24.7536C50.1226 24.526 50.3501 26.0977 50.3131 27.2142C50.2443 29.5849 51.5778 30.9342 53.9485 31.1142C54.533 31.1481 55.1091 31.2694 55.6577 31.474C56.8748 31.9555 57.9966 31.8074 58.7533 30.7861C60.2667 28.77 62.0024 25.4997 61.8542 22.748C61.8092 22.4721 61.8518 22.189 61.9759 21.9384C62.0023 21.9023 62.0296 21.8644 62.0577 21.8253C62.3339 21.4415 62.6884 20.9489 63.0343 20.9489C64.0289 20.8967 64.9075 21.059 65.7972 21.2234C66.5311 21.359 67.2726 21.496 68.0931 21.5151C68.6622 21.5294 69.2313 21.5726 69.8004 21.6158C70.496 21.6686 71.1916 21.7215 71.8872 21.7215C75.2625 22.0957 75.6926 20.8471 76.1675 19.4687C76.3507 18.9369 76.5406 18.3856 76.909 17.9009C77.618 17.0013 77.2953 16.2499 76.5597 15.6308C76.1032 15.3306 75.6237 15.0669 75.1257 14.8423C74.9485 14.7357 74.7449 14.6351 74.5394 14.5335C74.0208 14.2771 73.4902 14.0148 73.3424 13.6358C72.6703 11.8419 71.4004 11.7255 69.8129 11.8419C68.5639 11.9408 67.4352 11.8141 66.2897 11.6856C65.4115 11.5871 64.5233 11.4874 63.5634 11.4874C63.3733 11.4665 63.1912 11.3997 63.0326 11.2928C62.8741 11.1858 62.7439 11.042 62.6533 10.8736C62.4947 10.4491 62.393 10.0036 62.2914 9.55855C62.1828 9.08269 62.0743 8.6074 61.8965 8.15895C61.8176 7.96175 61.7387 7.76434 61.6598 7.56682C60.8772 5.60707 60.0904 3.63709 59.129 1.77192C58.2241 0.0203785 57.1605 0.046836 56.0175 1.60788C55.7911 1.8793 55.6122 2.18702 55.4883 2.51804C55.2718 3.20743 55.053 3.89527 54.8342 4.58287C54.0638 7.00396 53.2944 9.42213 52.6308 11.8949C52.1652 13.6094 51.9906 13.9533 50.202 14.3026C49.5776 14.419 48.9584 14.5407 48.3499 14.71C44.3757 15.8591 40.2761 16.5183 36.142 16.6732C33.7707 16.6948 33.7706 16.6812 33.7632 15.4103C33.7615 15.1214 33.7594 14.7675 33.729 14.3343C33.7065 14.024 33.6882 13.7101 33.6698 13.3947C33.5841 11.9298 33.4967 10.4336 32.9829 9.12732C31.5436 5.47608 28.6385 3.07896 25.1407 1.45442C24.7121 1.25863 23.8601 1.75075 23.3309 2.12646C23.1783 2.23546 23.3059 2.76119 23.4118 3.19748C23.4345 3.2907 23.4561 3.37984 23.4738 3.45996C23.5696 3.75689 23.6936 4.04396 23.8442 4.3172C25.1448 7.19379 24.9952 10.2474 24.8453 13.3073C24.8396 13.4221 24.834 13.5369 24.8285 13.6517C24.7914 14.4507 24.3946 14.5989 23.7331 14.3872C23.1821 14.1701 22.6205 13.9811 22.0503 13.821C18.9755 13.1655 16.627 12.8015 13.5312 12.3217L13.372 12.297C11.3136 11.9742 9.18103 11.9054 7.42949 13.4929C6.41113 14.5298 5.29466 15.4655 4.09575 16.2869C1.46579 17.848 -0.0793639 20.0228 0.0264693 23.1396C0.0952608 25.2087 0.76201 27.1825 2.34951 28.5318C3.32231 29.3733 4.5116 29.9759 5.69267 30.5744C6.03422 30.7475 6.37509 30.9202 6.70983 31.0983C7.24429 31.384 7.95337 31.7121 8.48254 31.5798C10.1773 31.1377 11.7783 31.463 13.3834 31.7892C13.9684 31.908 14.5539 32.027 15.1447 32.109C16.2579 32.2472 17.0414 32.1165 17.9644 31.9625C18.3489 31.8983 18.7577 31.8301 19.2246 31.7756C20.1902 31.666 21.1274 31.3767 22.0631 31.0878C22.5273 30.9445 22.9912 30.8013 23.4579 30.6802ZM22.2367 56.138C22.0037 56.4221 21.7589 56.7206 21.5 57.0434C21.1058 56.0974 20.7907 55.1204 20.5581 54.1224C20.3921 52.8525 20.2832 51.5772 20.1744 50.3029C20.096 49.3841 20.0176 48.4657 19.9178 47.5501C19.801 47.0471 19.6233 46.5602 19.3886 46.1002C18.865 46.2786 18.3627 46.5147 17.8911 46.804C17.4815 47.1765 17.1253 47.6039 16.8328 48.074C16.325 48.7798 15.8102 49.4824 15.2951 50.1853C14.1998 51.6801 13.1032 53.1765 12.0703 54.7097C11.0084 56.2618 10.0605 57.8889 9.23395 59.5781C8.61885 60.855 8.13262 62.1921 7.64675 63.5282C7.47221 64.0082 7.2977 64.4881 7.11729 64.965C5.41169 69.4501 4.67237 74.2449 4.94771 79.0355C5.13821 82.4169 6.89504 84.6764 9.81074 86.2057C10.0181 86.3417 10.1929 86.5218 10.3228 86.7331C10.4527 86.9443 10.5344 87.1816 10.5622 87.4281C10.5545 87.9618 10.6676 88.4903 10.893 88.9742C11.1184 89.458 11.4503 89.8846 11.8639 90.2221C13.2186 91.3704 14.8378 91.8149 16.5364 92.0636C20.2564 92.617 24.0118 92.4646 27.7629 92.3124C29.0329 92.2609 30.3025 92.2094 31.57 92.1853C33.5059 92.1524 35.4384 91.9576 37.3713 91.7628C38.8622 91.6126 40.3533 91.4623 41.8464 91.3862C45.8632 91.1843 49.8724 91.0851 53.9031 90.9854C54.6248 90.9675 55.3472 90.9496 56.0704 90.9311C56.4771 90.9212 56.8873 90.9771 57.2966 91.0328C57.7554 91.0953 58.2131 91.1577 58.6633 91.1269C58.9741 91.1032 59.2848 91.0799 59.5955 91.0566C61.8509 90.8874 64.1044 90.7182 66.3415 90.402C67.36 90.255 68.0845 89.7793 68.8549 89.2734C69.2493 89.0144 69.6557 88.7476 70.1198 88.5129C70.2846 88.4299 70.4568 88.3309 70.6316 88.2304C71.3378 87.8243 72.0873 87.3932 72.5751 87.8937C73.607 88.9468 75.0569 89.3807 76.0676 88.3224C76.5382 87.8296 76.9389 87.3367 77.3395 86.8439C77.7993 86.2784 78.259 85.7129 78.8246 85.1474C81.2005 82.8561 81.7879 80.0303 81.4122 76.9241C81.3141 76.1199 81.1437 75.3192 80.9736 74.5194C80.7216 73.3353 80.4702 72.1533 80.4544 70.9657C80.4034 67.1323 80.598 63.2891 80.7921 59.4551L80.8142 59.0171C80.881 57.6593 81.0006 56.3058 81.12 54.9542C81.2653 53.3086 81.4104 51.6657 81.4598 50.0213C81.5233 47.7935 80.9571 45.6663 78.978 44.2693C76.819 42.7506 74.6441 41.2531 72.4217 39.8296C70.1461 38.2648 67.3682 37.6062 64.6323 37.9828C63.6019 38.1354 62.5698 38.2908 61.5363 38.4463C58.5201 38.9003 55.4923 39.3561 52.4615 39.7502C46.8949 40.4994 41.4994 42.2036 36.5125 44.7879C31.6335 47.2644 26.8552 49.889 23.5479 54.4769C23.1485 55.026 22.7179 55.5511 22.2367 56.138ZM47.3498 78.0883V77.9613C44.718 78.2047 42.0881 78.4587 39.4599 78.7233C38.4414 78.8121 37.4272 78.8961 36.4159 78.9799C34.2324 79.1607 32.0625 79.3404 29.8926 79.5647C28.8025 79.6811 28.2257 79.4959 28.2733 78.2576C28.3613 75.9997 27.4511 74.0402 26.5429 72.0851C26.3038 71.5706 26.065 71.0564 25.8445 70.5371C25.5643 69.8807 25.2743 69.2281 24.9844 68.5757C24.2995 67.0345 23.615 65.4941 23.0611 63.9066C22.5793 62.2912 22.2255 60.6404 22.0027 58.9695C21.9719 58.5803 22.0786 58.1927 22.3043 57.8741C24.4669 54.779 27.547 52.4413 31.1097 51.1908C31.4964 51.0518 31.8831 50.9124 32.2698 50.773C34.7401 49.8822 37.2119 48.9908 39.7192 48.2222C42.7778 47.2908 45.8575 46.3965 48.9796 45.7404C53.6892 44.7191 58.4252 43.8989 63.1877 43.0946C65.5954 42.6924 67.9079 42.957 69.9081 44.608C70.6915 45.2055 71.5234 45.7365 72.3952 46.1955C74.623 47.4655 76.0993 49.127 75.5702 51.6617C75.0667 54.2966 74.1563 56.837 72.8714 59.1918C71.0688 62.8219 69.2502 66.4466 67.4157 70.0661C67.0626 70.7385 66.6974 71.4009 66.3326 72.0625C65.8992 72.8484 65.4665 73.633 65.0557 74.4318C64.4259 75.6647 63.2882 76.1462 62.0817 76.3315C58.7451 76.8448 53.1157 77.5639 49.5455 78.02L49.0114 78.0883C48.458 78.1227 47.9031 78.1227 47.3498 78.0883Z" fill="#61A038"/>
<path fill-rule="evenodd" clip-rule="evenodd" d="M23.4579 30.6802C23.7075 30.667 23.9576 30.6938 24.1988 30.7596C24.1704 30.8814 24.1421 30.9972 24.1147 31.1092C24.0397 31.4157 23.9715 31.6942 23.9289 31.9926C23.3098 35.157 25.2518 37.3742 28.4268 37.1731C29.0116 37.174 29.5911 37.2835 30.136 37.4959C31.2631 37.8663 32.2315 37.7658 32.9988 36.7604C33.4348 36.3048 33.8264 35.8086 34.1682 35.2787C34.5575 34.6032 34.7907 33.8493 34.8509 33.0721C34.8 31.6519 34.648 30.2372 34.3958 28.8387C34.2794 28.0979 34.4805 27.7381 35.2372 27.6005C35.8718 27.4847 36.6741 27.4395 37.4869 27.3938C38.382 27.3435 39.2897 27.2924 39.9997 27.1454C41.4846 26.8359 43.0741 26.3788 44.6601 25.9227C46.1655 25.4897 47.6679 25.0577 49.0748 24.7536C50.1226 24.526 50.3501 26.0977 50.3131 27.2142C50.2443 29.5849 51.5778 30.9342 53.9485 31.1142C54.533 31.1481 55.1091 31.2694 55.6577 31.474C56.8748 31.9555 57.9966 31.8074 58.7533 30.7861C60.2667 28.77 62.0024 25.4997 61.8542 22.748C61.8092 22.4721 61.8518 22.189 61.9759 21.9384C62.0023 21.9023 62.0296 21.8644 62.0577 21.8253C62.3339 21.4415 62.6884 20.9489 63.0343 20.9489C64.0289 20.8967 64.9075 21.059 65.7972 21.2234C66.5311 21.359 67.2726 21.496 68.0931 21.5151C68.6622 21.5294 69.2313 21.5726 69.8004 21.6158C70.496 21.6686 71.1916 21.7215 71.8872 21.7215C75.2625 22.0957 75.6926 20.8471 76.1675 19.4687C76.3507 18.9369 76.5406 18.3856 76.909 17.9009C77.618 17.0013 77.2953 16.2499 76.5597 15.6308C76.1032 15.3306 75.6237 15.0669 75.1257 14.8423C74.9485 14.7357 74.7449 14.6351 74.5394 14.5335C74.0208 14.2771 73.4902 14.0148 73.3424 13.6358C72.6703 11.8419 71.4004 11.7255 69.8129 11.8419C68.5639 11.9408 67.4352 11.8141 66.2897 11.6856C65.4115 11.5871 64.5233 11.4874 63.5634 11.4874C63.3733 11.4665 63.1912 11.3997 63.0326 11.2928C62.8741 11.1858 62.7439 11.042 62.6533 10.8736C62.4947 10.4491 62.393 10.0036 62.2914 9.55855C62.1828 9.08269 62.0743 8.6074 61.8965 8.15895C61.8176 7.96175 61.7387 7.76434 61.6598 7.56682C60.8772 5.60707 60.0904 3.63709 59.129 1.77192C58.2241 0.0203785 57.1605 0.046836 56.0175 1.60788C55.7911 1.8793 55.6122 2.18702 55.4883 2.51804C55.2718 3.20743 55.053 3.89527 54.8342 4.58287C54.0638 7.00396 53.2944 9.42213 52.6308 11.8949C52.1652 13.6094 51.9906 13.9533 50.202 14.3026C49.5776 14.419 48.9584 14.5407 48.3499 14.71C44.3757 15.8591 40.2761 16.5183 36.142 16.6732C33.7707 16.6948 33.7706 16.6812 33.7632 15.4103C33.7615 15.1214 33.7594 14.7675 33.729 14.3343C33.7065 14.024 33.6882 13.7101 33.6698 13.3947C33.5841 11.9298 33.4967 10.4336 32.9829 9.12732C31.5436 5.47608 28.6385 3.07896 25.1407 1.45442C24.7121 1.25863 23.8601 1.75075 23.3309 2.12646C23.1783 2.23546 23.3059 2.76119 23.4118 3.19748C23.4345 3.2907 23.4561 3.37984 23.4738 3.45996C23.5696 3.75689 23.6936 4.04396 23.8442 4.3172C25.1448 7.19379 24.9952 10.2474 24.8453 13.3073C24.8396 13.4221 24.834 13.5369 24.8285 13.6517C24.7914 14.4507 24.3946 14.5989 23.7331 14.3872C23.1821 14.1701 22.6205 13.9811 22.0503 13.821C18.9755 13.1655 16.627 12.8015 13.5312 12.3217L13.372 12.297C11.3136 11.9742 9.18103 11.9054 7.42949 13.4929C6.41113 14.5298 5.29466 15.4655 4.09575 16.2869C1.46579 17.848 -0.0793639 20.0228 0.0264693 23.1396C0.0952608 25.2087 0.76201 27.1825 2.34951 28.5318C3.32231 29.3733 4.5116 29.9759 5.69267 30.5744C6.03422 30.7475 6.37509 30.9202 6.70983 31.0983C7.24429 31.384 7.95337 31.7121 8.48254 31.5798C10.1773 31.1377 11.7783 31.463 13.3834 31.7892C13.9684 31.908 14.5539 32.027 15.1447 32.109C16.2579 32.2472 17.0414 32.1165 17.9644 31.9625C18.3489 31.8983 18.7577 31.8301 19.2246 31.7756C20.1902 31.666 21.1274 31.3767 22.0631 31.0878C22.5273 30.9445 22.9912 30.8013 23.4579 30.6802ZM22.2367 56.138C22.0037 56.4221 21.7589 56.7206 21.5 57.0434C21.1058 56.0974 20.7907 55.1204 20.5581 54.1224C20.3921 52.8525 20.2832 51.5772 20.1744 50.3029C20.096 49.3841 20.0176 48.4657 19.9178 47.5501C19.801 47.0471 19.6233 46.5602 19.3886 46.1002C18.865 46.2786 18.3627 46.5147 17.8911 46.804C17.4815 47.1765 17.1253 47.6039 16.8328 48.074C16.325 48.7798 15.8102 49.4824 15.2951 50.1853C14.1998 51.6801 13.1032 53.1765 12.0703 54.7097C11.0084 56.2618 10.0605 57.8889 9.23395 59.5781C8.61885 60.855 8.13262 62.1921 7.64675 63.5282C7.47221 64.0082 7.2977 64.4881 7.11729 64.965C5.41169 69.4501 4.67237 74.2449 4.94771 79.0355C5.13821 82.4169 6.89504 84.6764 9.81074 86.2057C10.0181 86.3417 10.1929 86.5218 10.3228 86.7331C10.4527 86.9443 10.5344 87.1816 10.5622 87.4281C10.5545 87.9618 10.6676 88.4903 10.893 88.9742C11.1184 89.458 11.4503 89.8846 11.8639 90.2221C13.2186 91.3704 14.8378 91.8149 16.5364 92.0636C20.2564 92.617 24.0118 92.4646 27.7629 92.3124C29.0329 92.2609 30.3025 92.2094 31.57 92.1853C33.5059 92.1524 35.4384 91.9576 37.3713 91.7628C38.8622 91.6126 40.3533 91.4623 41.8464 91.3862C45.8632 91.1843 49.8724 91.0851 53.9031 90.9854C54.6248 90.9675 55.3472 90.9496 56.0704 90.9311C56.4771 90.9212 56.8873 90.9771 57.2966 91.0328C57.7554 91.0953 58.2131 91.1577 58.6633 91.1269C58.9741 91.1032 59.2848 91.0799 59.5955 91.0566C61.8509 90.8874 64.1044 90.7182 66.3415 90.402C67.36 90.255 68.0845 89.7793 68.8549 89.2734C69.2493 89.0144 69.6557 88.7476 70.1198 88.5129C70.2846 88.4299 70.4568 88.3309 70.6316 88.2304C71.3378 87.8243 72.0873 87.3932 72.5751 87.8937C73.607 88.9468 75.0569 89.3807 76.0676 88.3224C76.5382 87.8296 76.9389 87.3367 77.3395 86.8439C77.7993 86.2784 78.259 85.7129 78.8246 85.1474C81.2005 82.8561 81.7879 80.0303 81.4122 76.9241C81.3141 76.1199 81.1437 75.3192 80.9736 74.5194C80.7216 73.3353 80.4702 72.1533 80.4544 70.9657C80.4034 67.1323 80.598 63.2891 80.7921 59.4551L80.8142 59.0171C80.881 57.6593 81.0006 56.3058 81.12 54.9542C81.2653 53.3086 81.4104 51.6657 81.4598 50.0213C81.5233 47.7935 80.9571 45.6663 78.978 44.2693C76.819 42.7506 74.6441 41.2531 72.4217 39.8296C70.1461 38.2648 67.3682 37.6062 64.6323 37.9828C63.6019 38.1354 62.5698 38.2908 61.5363 38.4463C58.5201 38.9003 55.4923 39.3561 52.4615 39.7502C46.8949 40.4994 41.4994 42.2036 36.5125 44.7879C31.6335 47.2644 26.8552 49.889 23.5479 54.4769C23.1485 55.026 22.7179 55.5511 22.2367 56.138ZM47.3498 78.0883V77.9613C44.718 78.2047 42.0881 78.4587 39.4599 78.7233C38.4414 78.8121 37.4272 78.8961 36.4159 78.9799C34.2324 79.1607 32.0625 79.3404 29.8926 79.5647C28.8025 79.6811 28.2257 79.4959 28.2733 78.2576C28.3613 75.9997 27.4511 74.0402 26.5429 72.0851C26.3038 71.5706 26.065 71.0564 25.8445 70.5371C25.5643 69.8807 25.2743 69.2281 24.9844 68.5757C24.2995 67.0345 23.615 65.4941 23.0611 63.9066C22.5793 62.2912 22.2255 60.6404 22.0027 58.9695C21.9719 58.5803 22.0786 58.1927 22.3043 57.8741C24.4669 54.779 27.547 52.4413 31.1097 51.1908C31.4964 51.0518 31.8831 50.9124 32.2698 50.773C34.7401 49.8822 37.2119 48.9908 39.7192 48.2222C42.7778 47.2908 45.8575 46.3965 48.9796 45.7404C53.6892 44.7191 58.4252 43.8989 63.1877 43.0946C65.5954 42.6924 67.9079 42.957 69.9081 44.608C70.6915 45.2055 71.5234 45.7365 72.3952 46.1955C74.623 47.4655 76.0993 49.127 75.5702 51.6617C75.0667 54.2966 74.1563 56.837 72.8714 59.1918C71.0688 62.8219 69.2502 66.4466 67.4157 70.0661C67.0626 70.7385 66.6974 71.4009 66.3326 72.0625C65.8992 72.8484 65.4665 73.633 65.0557 74.4318C64.4259 75.6647 63.2882 76.1462 62.0817 76.3315C58.7451 76.8448 53.1157 77.5639 49.5455 78.02L49.0114 78.0883C48.458 78.1227 47.9031 78.1227 47.3498 78.0883Z" fill="url(#paint0_linear_223_281)"/>
<path fill-rule="evenodd" clip-rule="evenodd" d="M23.4579 30.6802C23.7075 30.667 23.9576 30.6938 24.1988 30.7596C24.1704 30.8814 24.1421 30.9972 24.1147 31.1092C24.0397 31.4157 23.9715 31.6942 23.9289 31.9926C23.3098 35.157 25.2518 37.3742 28.4268 37.1731C29.0116 37.174 29.5911 37.2835 30.136 37.4959C31.2631 37.8663 32.2315 37.7658 32.9988 36.7604C33.4348 36.3048 33.8264 35.8086 34.1682 35.2787C34.5575 34.6032 34.7907 33.8493 34.8509 33.0721C34.8 31.6519 34.648 30.2372 34.3958 28.8387C34.2794 28.0979 34.4805 27.7381 35.2372 27.6005C35.8718 27.4847 36.6741 27.4395 37.4869 27.3938C38.382 27.3435 39.2897 27.2924 39.9997 27.1454C41.4846 26.8359 43.0741 26.3788 44.6601 25.9227C46.1655 25.4897 47.6679 25.0577 49.0748 24.7536C50.1226 24.526 50.3501 26.0977 50.3131 27.2142C50.2443 29.5849 51.5778 30.9342 53.9485 31.1142C54.533 31.1481 55.1091 31.2694 55.6577 31.474C56.8748 31.9555 57.9966 31.8074 58.7533 30.7861C60.2667 28.77 62.0024 25.4997 61.8542 22.748C61.8092 22.4721 61.8518 22.189 61.9759 21.9384C62.0023 21.9023 62.0296 21.8644 62.0577 21.8253C62.3339 21.4415 62.6884 20.9489 63.0343 20.9489C64.0289 20.8967 64.9075 21.059 65.7972 21.2234C66.5311 21.359 67.2726 21.496 68.0931 21.5151C68.6622 21.5294 69.2313 21.5726 69.8004 21.6158C70.496 21.6686 71.1916 21.7215 71.8872 21.7215C75.2625 22.0957 75.6926 20.8471 76.1675 19.4687C76.3507 18.9369 76.5406 18.3856 76.909 17.9009C77.618 17.0013 77.2953 16.2499 76.5597 15.6308C76.1032 15.3306 75.6237 15.0669 75.1257 14.8423C74.9485 14.7357 74.7449 14.6351 74.5394 14.5335C74.0208 14.2771 73.4902 14.0148 73.3424 13.6358C72.6703 11.8419 71.4004 11.7255 69.8129 11.8419C68.5639 11.9408 67.4352 11.8141 66.2897 11.6856C65.4115 11.5871 64.5233 11.4874 63.5634 11.4874C63.3733 11.4665 63.1912 11.3997 63.0326 11.2928C62.8741 11.1858 62.7439 11.042 62.6533 10.8736C62.4947 10.4491 62.393 10.0036 62.2914 9.55855C62.1828 9.08269 62.0743 8.6074 61.8965 8.15895C61.8176 7.96175 61.7387 7.76434 61.6598 7.56682C60.8772 5.60707 60.0904 3.63709 59.129 1.77192C58.2241 0.0203785 57.1605 0.046836 56.0175 1.60788C55.7911 1.8793 55.6122 2.18702 55.4883 2.51804C55.2718 3.20743 55.053 3.89527 54.8342 4.58287C54.0638 7.00396 53.2944 9.42213 52.6308 11.8949C52.1652 13.6094 51.9906 13.9533 50.202 14.3026C49.5776 14.419 48.9584 14.5407 48.3499 14.71C44.3757 15.8591 40.2761 16.5183 36.142 16.6732C33.7707 16.6948 33.7706 16.6812 33.7632 15.4103C33.7615 15.1214 33.7594 14.7675 33.729 14.3343C33.7065 14.024 33.6882 13.7101 33.6698 13.3947C33.5841 11.9298 33.4967 10.4336 32.9829 9.12732C31.5436 5.47608 28.6385 3.07896 25.1407 1.45442C24.7121 1.25863 23.8601 1.75075 23.3309 2.12646C23.1783 2.23546 23.3059 2.76119 23.4118 3.19748C23.4345 3.2907 23.4561 3.37984 23.4738 3.45996C23.5696 3.75689 23.6936 4.04396 23.8442 4.3172C25.1448 7.19379 24.9952 10.2474 24.8453 13.3073C24.8396 13.4221 24.834 13.5369 24.8285 13.6517C24.7914 14.4507 24.3946 14.5989 23.7331 14.3872C23.1821 14.1701 22.6205 13.9811 22.0503 13.821C18.9755 13.1655 16.627 12.8015 13.5312 12.3217L13.372 12.297C11.3136 11.9742 9.18103 11.9054 7.42949 13.4929C6.41113 14.5298 5.29466 15.4655 4.09575 16.2869C1.46579 17.848 -0.0793639 20.0228 0.0264693 23.1396C0.0952608 25.2087 0.76201 27.1825 2.34951 28.5318C3.32231 29.3733 4.5116 29.9759 5.69267 30.5744C6.03422 30.7475 6.37509 30.9202 6.70983 31.0983C7.24429 31.384 7.95337 31.7121 8.48254 31.5798C10.1773 31.1377 11.7783 31.463 13.3834 31.7892C13.9684 31.908 14.5539 32.027 15.1447 32.109C16.2579 32.2472 17.0414 32.1165 17.9644 31.9625C18.3489 31.8983 18.7577 31.8301 19.2246 31.7756C20.1902 31.666 21.1274 31.3767 22.0631 31.0878C22.5273 30.9445 22.9912 30.8013 23.4579 30.6802ZM22.2367 56.138C22.0037 56.4221 21.7589 56.7206 21.5 57.0434C21.1058 56.0974 20.7907 55.1204 20.5581 54.1224C20.3921 52.8525 20.2832 51.5772 20.1744 50.3029C20.096 49.3841 20.0176 48.4657 19.9178 47.5501C19.801 47.0471 19.6233 46.5602 19.3886 46.1002C18.865 46.2786 18.3627 46.5147 17.8911 46.804C17.4815 47.1765 17.1253 47.6039 16.8328 48.074C16.325 48.7798 15.8102 49.4824 15.2951 50.1853C14.1998 51.6801 13.1032 53.1765 12.0703 54.7097C11.0084 56.2618 10.0605 57.8889 9.23395 59.5781C8.61885 60.855 8.13262 62.1921 7.64675 63.5282C7.47221 64.0082 7.2977 64.4881 7.11729 64.965C5.41169 69.4501 4.67237 74.2449 4.94771 79.0355C5.13821 82.4169 6.89504 84.6764 9.81074 86.2057C10.0181 86.3417 10.1929 86.5218 10.3228 86.7331C10.4527 86.9443 10.5344 87.1816 10.5622 87.4281C10.5545 87.9618 10.6676 88.4903 10.893 88.9742C11.1184 89.458 11.4503 89.8846 11.8639 90.2221C13.2186 91.3704 14.8378 91.8149 16.5364 92.0636C20.2564 92.617 24.0118 92.4646 27.7629 92.3124C29.0329 92.2609 30.3025 92.2094 31.57 92.1853C33.5059 92.1524 35.4384 91.9576 37.3713 91.7628C38.8622 91.6126 40.3533 91.4623 41.8464 91.3862C45.8632 91.1843 49.8724 91.0851 53.9031 90.9854C54.6248 90.9675 55.3472 90.9496 56.0704 90.9311C56.4771 90.9212 56.8873 90.9771 57.2966 91.0328C57.7554 91.0953 58.2131 91.1577 58.6633 91.1269C58.9741 91.1032 59.2848 91.0799 59.5955 91.0566C61.8509 90.8874 64.1044 90.7182 66.3415 90.402C67.36 90.255 68.0845 89.7793 68.8549 89.2734C69.2493 89.0144 69.6557 88.7476 70.1198 88.5129C70.2846 88.4299 70.4568 88.3309 70.6316 88.2304C71.3378 87.8243 72.0873 87.3932 72.5751 87.8937C73.607 88.9468 75.0569 89.3807 76.0676 88.3224C76.5382 87.8296 76.9389 87.3367 77.3395 86.8439C77.7993 86.2784 78.259 85.7129 78.8246 85.1474C81.2005 82.8561 81.7879 80.0303 81.4122 76.9241C81.3141 76.1199 81.1437 75.3192 80.9736 74.5194C80.7216 73.3353 80.4702 72.1533 80.4544 70.9657C80.4034 67.1323 80.598 63.2891 80.7921 59.4551L80.8142 59.0171C80.881 57.6593 81.0006 56.3058 81.12 54.9542C81.2653 53.3086 81.4104 51.6657 81.4598 50.0213C81.5233 47.7935 80.9571 45.6663 78.978 44.2693C76.819 42.7506 74.6441 41.2531 72.4217 39.8296C70.1461 38.2648 67.3682 37.6062 64.6323 37.9828C63.6019 38.1354 62.5698 38.2908 61.5363 38.4463C58.5201 38.9003 55.4923 39.3561 52.4615 39.7502C46.8949 40.4994 41.4994 42.2036 36.5125 44.7879C31.6335 47.2644 26.8552 49.889 23.5479 54.4769C23.1485 55.026 22.7179 55.5511 22.2367 56.138ZM47.3498 78.0883V77.9613C44.718 78.2047 42.0881 78.4587 39.4599 78.7233C38.4414 78.8121 37.4272 78.8961 36.4159 78.9799C34.2324 79.1607 32.0625 79.3404 29.8926 79.5647C28.8025 79.6811 28.2257 79.4959 28.2733 78.2576C28.3613 75.9997 27.4511 74.0402 26.5429 72.0851C26.3038 71.5706 26.065 71.0564 25.8445 70.5371C25.5643 69.8807 25.2743 69.2281 24.9844 68.5757C24.2995 67.0345 23.615 65.4941 23.0611 63.9066C22.5793 62.2912 22.2255 60.6404 22.0027 58.9695C21.9719 58.5803 22.0786 58.1927 22.3043 57.8741C24.4669 54.779 27.547 52.4413 31.1097 51.1908C31.4964 51.0518 31.8831 50.9124 32.2698 50.773C34.7401 49.8822 37.2119 48.9908 39.7192 48.2222C42.7778 47.2908 45.8575 46.3965 48.9796 45.7404C53.6892 44.7191 58.4252 43.8989 63.1877 43.0946C65.5954 42.6924 67.9079 42.957 69.9081 44.608C70.6915 45.2055 71.5234 45.7365 72.3952 46.1955C74.623 47.4655 76.0993 49.127 75.5702 51.6617C75.0667 54.2966 74.1563 56.837 72.8714 59.1918C71.0688 62.8219 69.2502 66.4466 67.4157 70.0661C67.0626 70.7385 66.6974 71.4009 66.3326 72.0625C65.8992 72.8484 65.4665 73.633 65.0557 74.4318C64.4259 75.6647 63.2882 76.1462 62.0817 76.3315C58.7451 76.8448 53.1157 77.5639 49.5455 78.02L49.0114 78.0883C48.458 78.1227 47.9031 78.1227 47.3498 78.0883Z" fill="#1B3882"/>
<path d="M90.2561 26.1578C90.1756 26.08 90.0797 26.02 89.9745 25.9816C89.8694 25.9432 89.7573 25.9273 89.6457 25.935C89.3603 25.9682 89.0712 25.9485 88.793 25.8769C89.0934 25.499 89.1079 25.155 88.6719 24.908C88.575 24.8498 88.4684 24.8111 88.4587 24.6754L88.2068 24.7868C88.3618 25.3585 88.0857 25.7218 87.5819 26.0949C87.5726 25.7662 87.5188 25.4402 87.422 25.126C87.3385 25.1559 87.2526 25.1786 87.1652 25.1938C86.5355 25.2761 86.4773 25.4312 86.8794 25.9834C86.9182 26.0416 86.9957 26.0803 86.923 26.1966C86.5403 26.245 86.1382 26.2935 85.7361 26.3565C85.5714 26.3565 85.3049 26.2838 85.2904 26.5503C85.2904 26.7392 85.4696 26.8603 85.6489 26.9378C85.8185 27.0239 86.0152 27.0396 86.1963 26.9814C87.2377 26.6028 88.3599 26.5026 89.4519 26.6907C89.6567 26.7054 89.8623 26.7054 90.0671 26.6907C90.1979 26.6907 90.3481 26.6907 90.4062 26.5503C90.4644 26.4098 90.3578 26.2644 90.2561 26.1578Z" fill="white"/>
<path d="M89.3696 22.9847C89.2243 22.6844 88.9481 22.7231 88.6865 22.7231C88.609 22.7231 88.5073 22.7716 88.4394 22.6408C88.5993 22.5197 88.7689 22.4082 88.9239 22.2726C89.0789 22.1369 89.3793 22.0061 89.2436 21.7009C89.108 21.3957 88.827 21.4635 88.5993 21.4975C87.9501 21.5943 87.3058 21.7252 86.613 21.8463C86.8686 22.1914 87.2316 22.4419 87.6449 22.5584C87.2041 23.2415 87.2041 23.2415 86.6227 22.975C86.5937 23.6969 86.6227 24.3848 87.3203 24.8499C87.3833 24.8935 87.3979 25.0049 87.4318 25.0873H87.5044C87.7298 24.9496 87.98 24.8574 88.2408 24.816C88.3354 24.7793 88.4142 24.7107 88.4636 24.6222C88.6574 24.6222 88.9481 24.5737 88.8657 24.3654C88.764 24.0215 88.9869 23.881 89.1419 23.7066C89.2969 23.5322 89.5198 23.319 89.3696 22.9847ZM87.6158 24.1232C87.5238 24.1232 87.4414 23.973 87.4802 23.91C87.5683 23.8106 87.6789 23.7336 87.8028 23.6856C87.9267 23.6375 88.0602 23.6198 88.1924 23.6339C88.0276 23.91 87.9259 24.1571 87.6158 24.1426V24.1232Z" fill="white"/>
<path d="M87.175 16.6868C86.5888 16.7256 86.1237 16.6868 85.9105 16.1346C86.3321 16.2363 86.7756 16.1936 87.1701 16.0135C87.3591 15.9408 87.5916 15.8778 87.5964 15.6307C87.6013 15.3837 87.4123 15.2771 87.2186 15.1899L86.6711 14.9622C87.0829 14.7926 87.4172 14.6667 87.7418 14.5165C87.8532 14.468 88.0179 14.468 88.0518 14.313C88.0857 14.158 88.0518 13.9061 88.3522 13.9836C88.6525 14.0611 88.7785 14.4293 88.8366 14.72C88.8948 15.0106 88.6865 15.0397 88.4975 15.0881C88.3651 15.1185 88.2308 15.1395 88.0954 15.1511C88.2117 15.4902 88.483 15.4466 88.7301 15.4563C88.9771 15.466 89.137 15.5145 89.1515 15.7373C89.1661 15.9602 88.9093 15.9117 88.7737 15.9747C88.638 16.0377 88.5169 16.0086 88.3909 16.0474C88.3279 16.0685 88.273 16.1088 88.2339 16.1627C88.1948 16.2165 88.1735 16.2812 88.1729 16.3477C88.1729 16.5221 88.2989 16.5463 88.4297 16.5754C88.9142 16.682 89.3986 16.7886 89.8831 16.9145C90.098 16.9745 90.3059 17.0573 90.5032 17.1616C90.6243 17.2149 90.7502 17.3069 90.726 17.4523C90.7018 17.5976 90.5274 17.5831 90.4014 17.5976C89.9029 17.6297 89.4041 17.5399 88.9481 17.336C88.1342 17.0017 88.1293 17.0114 87.8968 17.8205C87.6352 17.6606 87.6885 17.336 87.5528 17.0889C86.6275 17.6509 86.1431 18.8039 84.9368 19.0752L87.175 16.6868Z" fill="white"/>
<path d="M88.6089 17.8252C88.3853 17.8396 88.1688 17.9095 87.9791 18.0287C87.8324 18.1462 87.6463 18.2031 87.4589 18.1878C87.2716 18.1725 87.0972 18.0861 86.9714 17.9463C87.0102 18.5713 87.0247 19.0364 87.078 19.5014C87.0777 19.6543 87.1356 19.8015 87.2401 19.9131C87.3445 20.0247 87.4875 20.0923 87.64 20.1022C87.7667 20.1135 87.8891 20.1535 87.9982 20.2189C88.1073 20.2843 88.2001 20.3736 88.2698 20.48C88.5701 20.8531 88.9286 20.761 89.0207 20.2814C89.1572 19.6604 89.2335 19.0277 89.2484 18.392C89.2484 17.956 89.0255 17.7961 88.6089 17.8252ZM88.4442 20.0779C88.3182 19.8987 88.2649 19.7388 88.1487 19.6661C87.7466 19.4094 87.3638 19.1817 88.231 19.1478C88.4248 19.1478 88.4539 18.9443 88.3037 18.8232C88.1757 18.7475 88.0368 18.692 87.8919 18.6585C87.9146 18.6013 87.9487 18.5493 87.9921 18.5056C88.0355 18.4619 88.0872 18.4275 88.1443 18.4044C88.2013 18.3813 88.2625 18.37 88.324 18.3712C88.3856 18.3724 88.4462 18.3861 88.5023 18.4114C88.7591 18.4986 88.6476 18.7651 88.6476 18.954C88.7038 19.3408 88.6324 19.7354 88.4442 20.0779Z" fill="white"/>
<path d="M89.0207 9.56044C88.9093 9.56044 88.7979 9.56044 88.6864 9.58951C88.4442 9.58951 88.4345 9.51684 88.4975 9.28915C88.6574 8.72718 89.0159 8.59638 89.5488 8.64967C89.7183 8.64967 90.0332 8.82892 90.072 8.45588C90.1107 8.08285 89.791 8.16037 89.5875 8.17974C89.2532 8.20881 89.1564 8.12645 89.2872 7.78734C89.3407 7.66477 89.347 7.52676 89.305 7.39979C89.263 7.27283 89.1755 7.16586 89.0595 7.09941C88.9416 7.00576 88.7915 6.96239 88.6419 6.97872C88.4922 6.99504 88.355 7.06975 88.2601 7.18661C88.3394 7.21639 88.4117 7.26196 88.4728 7.32055C88.5339 7.37914 88.5825 7.44953 88.6155 7.52745C88.6486 7.60537 88.6655 7.68919 88.6652 7.77384C88.6649 7.85849 88.6474 7.94219 88.6138 8.01987C88.5411 8.32993 88.2843 8.38806 88.0276 8.45588C87.921 8.48495 87.8338 8.54793 87.7902 8.36384C87.6013 7.5984 87.2428 7.36586 86.361 7.43853C86.613 7.79218 87.0926 8.18943 86.768 8.54793C86.5702 8.77946 86.2927 8.92834 85.9904 8.96512C85.6881 9.0019 85.3829 8.9239 85.1354 8.74656C85.3292 9.512 85.6828 9.71547 86.269 9.37635C86.4289 9.2843 86.6323 9.10505 86.7535 9.1971C87.2379 9.52169 87.4559 9.38119 87.6013 8.86283C87.6739 8.60122 87.9646 8.6642 88.1342 8.74171C88.3037 8.81922 88.1632 9.00332 88.1002 9.11959C87.9677 9.39944 87.7634 9.63919 87.5081 9.81448C87.2528 9.98977 86.9557 10.0943 86.6469 10.1176C86.4192 10.3598 86.6469 10.4082 86.8019 10.4276C87.1459 10.4712 87.2428 10.5681 87.0829 10.9121C87.0242 11.0912 87.0167 11.2831 87.0612 11.4663C87.1057 11.6495 87.2005 11.8166 87.3348 11.9488C87.5867 12.2637 87.8871 12.0263 88.1632 11.9488C88.512 11.6379 88.7486 11.2208 88.8366 10.7619C88.8289 10.7007 88.8071 10.6421 88.7728 10.5908C88.7386 10.5395 88.6928 10.4969 88.6392 10.4663C88.5856 10.4358 88.5257 10.4181 88.4641 10.4148C88.4025 10.4114 88.3409 10.4224 88.2843 10.447L87.7369 10.6262C87.9031 10.3639 88.1489 10.1617 88.4383 10.0492C88.7278 9.93678 89.0456 9.91997 89.3453 10.0013C89.51 10.0837 89.5294 10.2193 89.5536 10.3695C89.6451 11.036 89.6172 11.7135 89.4713 12.3703C89.3841 12.7869 89.0837 12.8935 88.7785 12.5883C88.6362 12.4154 88.436 12.3 88.215 12.2635C87.9941 12.227 87.7674 12.2718 87.577 12.3897C87.2282 12.5689 87.0005 12.3897 86.894 12.0651C86.7874 11.7405 86.6905 11.3529 86.5984 10.9896C86.5636 10.7763 86.4734 10.5758 86.3368 10.4082H86.3126L86.2302 10.7716C86.2328 10.7925 86.2328 10.8136 86.2302 10.8346C86.2302 10.8878 86.206 10.9411 86.1866 10.9944C86.1866 11.256 86.1867 11.5176 86.2206 11.7744C86.3514 12.845 86.831 13.2278 87.7514 12.908C87.9355 12.8283 88.1388 12.8038 88.3366 12.8373C88.5343 12.8709 88.7181 12.961 88.8657 13.097C89.3501 13.4797 89.7329 13.3295 89.8976 12.7191C90.0887 12.0345 90.1865 11.3273 90.1883 10.6166C90.1737 9.83174 89.8637 9.53137 89.0207 9.56044ZM88.2117 10.9508C88.2892 11.0623 88.1196 11.692 87.8483 11.7502C87.577 11.8083 87.4898 11.2124 87.4898 11.2124C87.4898 11.2124 88.1293 10.8346 88.2117 10.9508Z" fill="white"/>
<path fill-rule="evenodd" clip-rule="evenodd" d="M144.574 46.3708C144.604 46.7371 144.632 47.0615 144.632 47.3437C144.641 47.6721 144.674 47.9993 144.732 48.3227C144.871 48.7447 144.893 49.1963 144.796 49.6297L144.663 56.5671C144.67 56.8421 144.647 57.1171 144.595 57.3873C144.54 57.6589 144.517 57.9359 144.526 58.2128C144.447 59.0544 144.269 59.8838 143.997 60.684C143.653 61.864 143.457 62.5731 143.415 62.8006L143.235 62.8641C142.319 65.3671 140.552 67.7325 137.842 68.0129C136.488 68.1505 135.847 66.7006 136.139 65.5999C135.93 64.931 135.767 64.2485 135.652 63.5573V63.2822L135.583 62.5943L135.514 61.6312V61.3825C135.516 61.1183 135.539 60.8546 135.583 60.594C135.629 60.3106 135.652 60.0239 135.652 59.7368L135.72 56.0326V54.9743C135.723 54.8115 135.746 54.6497 135.789 54.4927C135.834 54.3199 135.857 54.1421 135.858 53.9636V52.3496C135.858 51.3654 135.789 50.8045 135.652 50.6669C135.175 50.7536 134.692 50.7996 134.207 50.8045C133.913 50.8138 133.627 50.9095 133.387 51.0796C133.162 51.1361 132.93 51.1593 132.699 51.1484C132.4 51.1484 132.101 51.1714 131.805 51.2172L130.365 51.3548C129.279 51.63 126.398 51.7675 121.724 51.7675C121.735 52.8717 121.756 53.9759 121.788 55.0801C121.825 55.6567 121.825 56.228 121.825 56.7835V56.784C122.049 57.6558 122.225 58.539 122.354 59.4299C122.699 61.3098 123.127 63.1382 123.557 64.976C123.66 65.4195 123.764 65.8636 123.867 66.309C123.975 66.6955 123.991 67.1019 123.915 67.4959C123.839 67.8899 123.672 68.2607 123.428 68.5791C123.431 68.6303 123.431 68.6815 123.428 68.7326C123.424 68.9284 123.496 69.118 123.629 69.2618L123.497 69.7433C123.2 69.9053 122.871 69.9992 122.534 70.0185C122.262 70.0705 121.985 70.0936 121.708 70.0873C121.363 70.0868 121.018 70.0638 120.676 70.0185L119.787 69.8809C118.958 69.835 117.538 68.9196 115.528 67.1345C114.489 65.9591 113.589 64.6683 112.845 63.2875C112.211 62.0683 111.727 60.7764 111.405 59.4404C111.31 58.8901 111.22 58.435 111.13 58.0646C111.054 57.7953 111.008 57.5185 110.993 57.2391C111.001 56.709 110.978 56.1789 110.924 55.6516L110.855 54.3446C110.855 53.2898 110.911 52.1115 111.024 50.8097C111.106 49.7378 111.283 48.6752 111.553 47.6348C111.788 45.181 112.2 42.7476 112.786 40.3534C113.003 39.4952 113.164 38.6238 113.268 37.7446C113.302 37.2314 113.395 36.7237 113.543 36.2312C113.728 35.538 113.887 35.0089 114.025 34.6437L114.326 33.9029L114.739 33.0774C114.884 32.8778 115 32.6587 115.083 32.4265C115.126 32.2676 115.196 32.1172 115.289 31.982L115.977 31.2253L116.252 31.0189C116.546 30.699 116.799 30.3435 117.004 29.9606C117.035 29.9889 117.071 30.0121 117.11 30.0294C117.231 29.8124 117.343 29.6431 117.448 29.5002C119.11 27.156 122.396 28.6271 121.936 31.3894L121.923 31.4641L121.923 31.4641L121.923 31.4642L121.923 31.4643C121.866 31.8068 121.79 32.2653 121.682 32.7969C121.867 33.252 121.893 33.5854 121.745 33.7812C121.606 34.2492 121.559 34.7399 121.608 35.2258L121.698 36.1624C121.883 37.2049 121.989 38.2632 122.063 39.184C122.227 41.1479 122.092 43.1354 121.958 45.1035L121.958 45.1038L121.958 45.104C121.924 45.6016 121.89 46.0979 121.862 46.5923C121.859 46.6205 121.859 46.6488 121.862 46.677L127.217 47.5025C128.177 47.6493 129.129 47.8454 130.069 48.0898C131.514 48.4285 132.598 48.6931 133.334 48.8783L136.355 49.635C136.37 49.3809 136.382 49.1463 136.393 48.9311C136.414 48.5235 136.432 48.1854 136.456 47.9152L136.468 47.7845L136.468 47.7845L136.468 47.784L136.468 47.7837C136.48 47.6397 136.487 47.5683 136.49 47.5684C136.493 47.5686 136.493 47.6385 136.493 47.7774L136.631 45.9943C136.749 45.3586 136.818 44.7146 136.837 44.0682C136.879 43.8195 136.932 43.4014 136.975 42.7611C137.017 42.1208 137.065 41.6393 137.112 41.3218C137.048 40.8662 137.025 40.4057 137.043 39.946C137.043 39.2157 137.075 38.4696 137.144 37.7129C137.176 37.2408 137.234 36.7708 137.319 36.3053C137.502 35.4694 137.617 34.6199 137.663 33.7653L137.985 33.9399C138.144 33.6867 138.356 33.471 138.606 33.3075C138.857 33.144 139.139 33.0367 139.435 32.993C139.731 32.9492 140.032 32.9701 140.319 33.0541C140.606 33.1381 140.871 33.2832 141.097 33.4796L141.266 33.6436C141.467 33.76 141.679 33.887 141.917 34.0405L142.88 35.755C143.473 37.316 143.748 38.459 143.706 39.1946L143.637 40.1523C143.638 40.3309 143.661 40.5087 143.706 40.6815L143.717 40.7294C143.756 40.9021 143.8 41.0925 143.843 41.3006C143.925 41.8556 144.04 42.4051 144.187 42.9463C144.187 42.8723 144.216 43.2323 144.279 44.0263L144.279 44.0273L144.325 44.5973L144.531 45.8356C144.544 46.0223 144.559 46.2001 144.574 46.3689L144.574 46.3698L144.574 46.3703L144.574 46.3707L144.574 46.3708ZM195.352 42.2002C194.919 42.1462 194.482 42.1267 194.045 42.142L193.368 42.3696L193.251 42.5442L192.913 42.6553L192.685 42.994C192.557 43.1015 192.397 43.163 192.23 43.1686L192.516 43.3961L192.458 43.5655L192.288 43.5073C192.403 43.678 192.48 43.8709 192.516 44.0735C192.545 44.2339 192.603 44.3879 192.685 44.5286C192.92 44.9274 193.186 45.3078 193.479 45.6663C194.069 46.3591 194.695 47.0214 195.352 47.6506C196.51 48.7512 197.592 49.9286 198.591 51.1749C199.495 52.222 200.311 53.3424 201.03 54.5245C201.098 54.6152 201.139 54.7236 201.147 54.8367C201.147 54.9248 201.127 55.0118 201.088 55.0907C201.061 55.1542 201.021 55.2118 200.972 55.2601L200.919 55.3712L200.633 56.0009L200.464 56.112C200.249 56.5157 200.06 56.9329 199.898 57.3608C199.725 57.8125 199.516 58.2495 199.273 58.6679C198.775 59.5049 198.339 60.3768 197.966 61.2767C197.593 62.082 197.288 62.9175 197.056 63.7743C196.759 64.1417 196.616 64.6106 196.659 65.0814C196.674 66.0133 196.908 66.9288 197.342 67.7537C197.46 67.7103 197.589 67.7103 197.707 67.7537C197.826 67.7993 197.951 67.8279 198.077 67.8383L198.194 67.7272L198.421 68.0077C198.598 68.0985 198.79 68.1559 198.988 68.177C199.132 68.1615 199.264 68.0914 199.358 67.9812C199.411 67.9207 199.476 67.8716 199.549 67.837C199.622 67.8025 199.701 67.7831 199.781 67.7801L199.951 67.5526L200.295 67.6108L200.348 67.669L200.691 67.1028C201.004 66.9963 201.293 66.8311 201.543 66.6159C201.743 66.4196 201.974 66.257 202.226 66.1344C202.383 66.0296 202.566 65.971 202.755 65.9651H202.872C203.04 65.8555 203.192 65.7218 203.321 65.5682L203.607 65.2824L203.724 65.2242C204.118 64.4111 204.678 63.69 205.369 63.1076L205.898 62.9965C206.58 63.8916 207.189 64.8401 207.719 65.8328C208.661 67.3515 209.285 68.3146 209.592 68.7326C209.798 68.9966 210.008 69.2718 210.227 69.5581L210.23 69.5622L210.23 69.5627C210.51 69.9292 210.804 70.314 211.121 70.717L211.92 71.6854C212.322 72.017 212.75 72.3143 213.201 72.5744C213.65 72.7969 214.116 72.9861 214.593 73.1406C214.646 73.0839 214.713 73.0413 214.787 73.0164C214.86 72.9915 214.939 72.9851 215.016 72.9977C215.139 73.0139 215.262 73.0228 215.386 73.0241C215.486 73.0257 215.584 73.0062 215.675 72.967C215.767 72.9278 215.848 72.8697 215.916 72.7966L216.085 72.6273L216.614 72.7437C216.784 72.6548 216.937 72.5386 217.069 72.3997L217.297 72.4579L217.641 71.4366L217.81 71.3784C217.887 71.1446 217.981 70.9166 218.09 70.6958C218.18 70.5256 218.256 70.3487 218.318 70.1667L218.376 69.9391C218.348 69.7551 218.388 69.5672 218.487 69.4099C218.588 69.2508 218.648 69.0689 218.662 68.8808C218.689 68.6961 218.647 68.508 218.546 68.3516C218.494 68.3125 218.459 68.2552 218.448 68.1912C218.437 68.1272 218.451 68.0616 218.487 68.0077L217.582 66.2508L216.9 65.1131C216.656 64.7321 216.487 64.4305 216.371 64.203C216.222 64.203 216.148 64.1659 216.148 64.0918C216.011 63.7853 215.833 63.4988 215.619 63.2399L215.45 63.1817C215.181 62.8573 214.952 62.502 214.767 62.1233C214.514 61.6723 214.287 61.2077 214.085 60.7316C213.805 60.0575 213.463 59.4109 213.063 58.8002L212.932 58.592L212.931 58.5915L212.931 58.5906L212.931 58.5901C212.593 58.057 212.394 57.7413 212.328 57.6095C212.017 57.2422 211.749 56.8411 211.529 56.4136L210.624 55.2812L212.069 53.7837L212.296 53.4979L212.582 53.3868L212.979 52.9317L214.397 51.6088L214.847 51.0426L216.963 49.3387L217.99 48.0899L218.519 47.6348C218.651 47.3 218.812 46.9777 219.001 46.6717C219.133 46.5056 219.222 46.3092 219.26 46.1002C219.219 45.6974 219.143 45.299 219.032 44.9096C218.86 44.3392 218.591 43.8024 218.239 43.3221L217.895 43.0945L217.836 42.9199L217.614 43.0363L217.212 42.5812L216.932 42.777L216.815 42.6659L216.646 42.7241L216.249 42.4966C216.051 42.5082 215.864 42.5887 215.72 42.7241L211.518 45.4493L211.296 45.7298C209.625 46.7849 208.033 47.9611 206.533 49.2487L205.57 48.2856L204.946 47.7565L203.411 46.3383C202.921 45.8597 202.4 45.4142 201.85 45.0048C201.622 44.8252 201.362 44.6905 201.083 44.6079C200.971 44.5913 200.858 44.5824 200.744 44.5815C200.293 44.5074 199.497 43.9782 198.358 42.994C197.977 42.6927 197.528 42.4892 197.051 42.4013C196.568 42.2791 196.073 42.2116 195.574 42.2002C195.61 42.2355 195.536 42.2355 195.352 42.2002ZM231.505 52.0057L231.267 51.6723L231.013 51.5665L230.833 51.8416L230.653 51.7887C230.381 51.8712 230.135 52.0225 229.938 52.2279L229.88 52.3391C229.602 52.4245 229.341 52.5569 229.108 52.7306L228.87 52.9476L228.097 53.4503L227.324 54.2758C227.056 54.7831 226.836 55.3147 226.668 55.8633C226.564 56.3387 226.485 56.8191 226.43 57.3026L226.192 58.7949C226.017 59.969 225.918 61.1533 225.896 62.3403C225.887 62.819 225.907 63.2978 225.954 63.7743C226.043 64.8734 226.253 65.9594 226.578 67.0128C226.944 67.9441 227.412 68.8316 227.975 69.6587C228.256 69.8068 228.859 70.1719 229.79 70.7646C230.722 71.3573 231.346 71.6324 231.669 71.5954L232.796 71.2673C233.241 71.041 233.643 70.7404 233.987 70.3783C234.346 70.0132 234.585 69.7539 234.701 69.6057C234.873 69.4207 235.004 69.2017 235.086 68.9629C235.168 68.7241 235.199 68.4708 235.177 68.2193C235.177 68.1043 235.172 67.9762 235.166 67.836V67.8358V67.8357V67.8354C235.159 67.6664 235.151 67.4798 235.151 67.2774C235.139 67.0006 235.109 66.7248 235.061 66.4519C235.219 65.9131 235.278 65.3502 235.235 64.7903C235.235 64.3617 235.198 63.4992 235.119 62.245C235.08 61.543 235.1 60.3983 235.177 58.8108C235.257 58.0752 235.299 57.5037 235.299 57.0963C235.218 56.1412 234.849 55.2333 234.241 54.4928C234.442 54.6409 234.14 54.2176 233.352 53.2228L232.457 52.6671L232.097 52.0057L231.923 52.2808L231.859 52.1697L231.743 52.2808L231.505 52.0057ZM231.166 42.4384L231.002 42.4966C230.674 42.495 230.347 42.4666 230.023 42.4119C229.766 42.3915 229.515 42.3176 229.288 42.1949C229.176 42.8247 229.012 43.1686 228.795 43.2533H228.547L228.467 43.6237L227.975 43.9306L227.811 43.6819C227.494 44.2949 227.298 44.9633 227.234 45.6504C227.225 45.9404 227.254 46.2303 227.319 46.5129C227.372 47.0379 227.525 47.5479 227.769 48.0158C228.037 48.4072 228.353 48.7628 228.711 49.0741C229.456 49.4134 230.223 49.7016 231.007 49.9366C231.648 49.8871 232.28 49.7628 232.891 49.5662C233.252 48.8824 233.566 48.1752 233.833 47.4496C234.115 46.8153 234.294 46.14 234.362 45.4493C234.367 45.1987 234.326 44.9494 234.241 44.7138C234.122 44.4584 233.955 44.2284 233.748 44.0364C233.53 43.8223 233.323 43.5962 233.129 43.3591C232.528 42.9503 231.865 42.6396 231.166 42.4384ZM262.937 65.5894C262.932 65.685 262.899 65.7769 262.842 65.854C262.797 65.9299 262.743 66.0008 262.683 66.0656L262.747 66.182L262.62 66.4202C262.596 66.4436 262.579 66.4718 262.568 66.503C262.557 66.5341 262.553 66.5673 262.556 66.6001C262.542 66.7775 262.519 66.9541 262.487 67.1292C262.445 67.385 262.445 67.6461 262.487 67.9018L262.297 68.0817L262.424 68.6797C262.429 68.8409 262.407 69.0017 262.36 69.156L262.297 69.5105L262.36 69.5687C262.258 69.7473 262.128 69.9082 261.974 70.045L261.397 70.1667L260.942 69.6904L259.852 69.1612L258.434 68.3252L256.952 66.9599L256.693 66.8382L256.376 67.198L255.407 67.7907L255.021 68.1452C254.381 68.4257 253.64 68.7062 252.798 68.9813C252.379 69.1639 251.935 69.2834 251.481 69.3359C251.188 69.4175 250.885 69.4584 250.581 69.4576C250.461 69.3931 250.33 69.3518 250.195 69.3359C249.978 69.34 249.763 69.3612 249.549 69.3994C249.294 69.4372 249.035 69.4566 248.777 69.4576C248.448 69.4536 248.122 69.3927 247.814 69.2777L247.232 69.1612L246.136 68.8014C245.514 68.5705 244.929 68.2496 244.401 67.8489C243.871 67.4763 243.376 67.0584 242.919 66.6001C242.336 65.9612 241.838 65.2498 241.437 64.4834L241.051 63.7108C240.453 62.2821 240.151 61.5466 240.151 61.5095C240.194 61.3734 240.194 61.2275 240.151 61.0915C240.094 60.8995 240.072 60.6986 240.088 60.4988C240.09 59.9988 240.132 59.4997 240.215 59.0066C240.278 58.5801 240.386 58.1614 240.538 57.7577C240.753 57.2039 241.268 56.112 242.083 54.4822C242.861 53.3855 243.769 52.3869 244.787 51.5083C246.046 50.6349 247.369 49.8583 248.745 49.1852C250.191 48.3977 251.741 47.817 253.349 47.4602C253.538 47.4155 253.732 47.396 253.926 47.4019C254.889 47.465 255.841 47.6426 256.762 47.9311C257.025 47.6936 257.209 47.3817 257.291 47.0368L257.677 46.8622L258.254 46.206L258.386 46.1478L260.186 46.9204C260.805 48.2428 261.267 49.633 261.563 51.0624L261.524 50.7727C261.636 51.3651 261.666 51.558 261.614 51.3515L261.8 52.9317V53.5879C261.842 53.826 261.874 54.0853 261.895 54.3605C261.889 54.5245 261.922 54.6875 261.99 54.8367L262.117 56.3819C262.104 56.7007 262.126 57.02 262.181 57.3344C262.228 57.6519 262.27 58.0911 262.313 58.6467C262.358 58.9981 262.358 59.3537 262.313 59.7051C262.397 60.4194 262.461 60.8586 262.503 61.0174C262.508 61.087 262.519 61.156 262.535 61.2238C262.556 61.3225 262.546 61.3913 262.503 61.4301C262.509 61.7697 262.532 62.1089 262.572 62.4461C262.609 62.866 262.673 63.2831 262.763 63.695C262.919 64.134 262.962 64.6052 262.89 65.0655C262.847 65.1998 262.847 65.344 262.89 65.4783L262.937 65.5894ZM254.762 60.594C254.677 61.4544 254.978 62.942 255.665 65.0569C255.531 65.2943 254.891 65.5317 253.735 65.727C252.826 65.9336 251.899 66.0523 250.967 66.0815C249.912 66.0637 248.876 65.7991 247.941 65.3089L247.412 64.7798L247.152 64.658L246.507 63.5997C246.289 63.2691 246.111 62.9138 245.977 62.5414C245.872 62.2292 245.729 61.7688 245.559 61.1708C245.428 60.6035 245.341 60.0267 245.3 59.4458C245.299 58.906 245.387 58.3697 245.559 57.8583C245.797 57.1956 246.098 56.5575 246.459 55.9533C246.332 55.9109 246.417 55.6516 246.718 55.1754C246.888 54.9373 247.406 54.3446 248.263 53.3921L249.227 52.6777C249.651 52.3652 250.092 52.0772 250.549 51.8152C251.021 51.5489 251.532 51.3579 252.063 51.249C252.334 51.1681 252.616 51.1289 252.899 51.1326L253.476 51.1908C254.032 51.2112 254.569 51.3953 255.021 51.7199L255.217 52.0163C255.155 52.1578 255.134 52.3131 255.153 52.4661C255.167 52.6621 255.121 52.8576 255.021 53.027C255.021 53.0746 254.957 53.5985 254.83 54.6145C254.688 55.8279 254.622 57.0492 254.635 58.271C254.635 58.869 254.677 59.6415 254.762 60.594ZM267.796 59.0757C268.47 55.7909 268.61 52.4577 267.98 49.0265L267.97 49.0317C267.824 48.4427 267.914 47.8199 268.22 47.2961C268.526 46.7723 269.025 46.3889 269.61 46.2274C270.195 46.066 270.82 46.1394 271.352 46.4319C271.884 46.7244 272.28 47.213 272.457 47.7935C272.992 49.1759 273.415 50.601 273.718 52.0496C276.218 49.7961 279.078 47.7812 282.601 47.9628C286.967 48.1904 289.052 51.884 290.142 55.6569C291.417 60.0649 292.105 65.3777 289.173 69.1559C288.422 70.1243 286.924 69.6428 286.363 68.7908C285.012 66.7339 284.902 64.7336 284.78 62.502C284.748 61.9205 284.715 61.3232 284.66 60.7051C284.639 60.4715 284.621 60.1884 284.601 59.8717L284.601 59.8705C284.465 57.7049 284.231 53.968 282.21 53.7096C280.232 53.4568 278.271 55.7918 276.906 57.4163L276.905 57.4169C276.67 57.6965 276.453 57.9551 276.256 58.1757C275.428 59.1124 274.61 60.1057 273.989 61.1844C273.745 62.7443 273.345 64.2856 272.78 65.7851C271.515 69.1348 266.208 68.849 266.271 64.9014C266.309 62.7454 266.877 60.8266 267.796 59.0757ZM323.162 51.4818C323.881 49.2223 320.352 47.6665 319.283 49.8467C318.369 51.7489 317.895 53.8324 317.896 55.9427H317.822C316.458 56.5008 315.294 57.353 314.133 58.203C312.773 59.1987 311.417 60.1913 309.747 60.7052C307.101 61.5359 303.926 60.8586 302.519 58.2657C301.048 55.5828 303.302 53.0005 305.44 51.5294C308.752 49.2487 312.816 48.709 316.716 49.4974C319.775 50.1113 320.987 45.7933 318.008 44.809C312.504 42.9728 305.604 43.0416 300.688 46.4706C295.925 49.8043 293.116 55.694 295.603 61.319C297.947 66.6106 304.239 69.6163 309.848 68.4416C313.023 67.7801 316.552 65.6687 318.479 62.7954C318.828 66.3672 318.547 69.4417 315.478 72.1351C312.245 74.9821 307.541 75.4953 303.429 75.2149C299.926 74.9768 297.132 73.6274 294.169 71.9658C293.057 71.3414 292.004 72.1669 291.861 73.294C291.274 77.9083 296.317 81.0516 300.27 81.9406C305.71 83.163 311.832 82.565 316.738 79.8239C321.124 77.3739 324.342 72.9871 324.823 67.9336C325.055 65.5 324.424 63.0551 323.795 60.619C323.001 57.5459 322.211 54.4867 323.162 51.4818ZM393.615 45.2104C395.194 45.3737 396.699 45.967 397.964 46.9257C400.261 48.7355 400.923 51.6036 400.965 54.4134C401.06 61.3561 396.642 68.05 389.694 69.701C382.439 71.4261 373.337 67.5473 373.443 59.0807C373.528 52.5296 380.364 42.9887 387.688 45.0525C388.225 45.2038 388.691 45.5391 389.006 45.9997C390.441 45.3202 392.035 45.0472 393.615 45.2104ZM395.052 60.2533C396.444 58.7486 397.378 56.8792 397.748 54.8632V54.8526C398.277 51.8576 397.298 49.1853 394.012 48.8413C393.254 48.758 392.508 48.7626 391.767 48.7672C390.956 48.7723 390.15 48.7773 389.339 48.6667C389.19 49.1507 388.874 49.5664 388.448 49.8405C388.022 50.1145 387.513 50.2291 387.011 50.1642C383.703 49.8467 380.005 56.5989 380.364 59.5834C380.841 63.6368 386.831 64.1289 389.889 63.3616C391.87 62.8361 393.661 61.7581 395.052 60.2533ZM441.155 58.144C440.284 58.225 439.406 58.4976 438.536 58.7672C436.452 59.4137 434.421 60.0435 432.688 57.9747C431.164 56.1649 430.963 51.2596 432.456 49.3546C433.514 48.0369 432.223 46.0049 430.577 46.9204C429.233 47.698 428.075 48.7611 427.187 50.0348C426.298 51.3084 425.699 52.7616 425.434 54.2917C425 54.7097 424.566 55.1278 424.137 55.5564C423.944 55.7474 423.745 55.9475 423.54 56.1535C421.835 57.865 419.722 59.9871 417.549 60.7475C411.94 62.7001 411.628 52.6089 413.384 49.635C414.972 46.9892 411.321 44.1846 409.151 46.3542C402.547 52.8894 404.447 66.4043 414.215 68.722C419.221 69.9074 424.026 66.9864 427.296 62.7425C428.338 64.1112 429.698 65.2053 431.258 65.93C432.818 66.6548 434.532 66.9883 436.25 66.9017C439.668 66.6795 443.515 64.2982 443.658 60.6364C443.695 59.377 442.451 58.0223 441.155 58.144ZM171.667 63.2664C171.609 62.8439 171.587 62.4172 171.603 61.9911V61.0333C171.616 60.0109 171.557 58.989 171.429 57.9747C171.355 57.7708 171.314 57.5565 171.307 57.3397C171.313 56.9646 171.354 56.5908 171.429 56.2232C171.51 55.8751 171.51 55.5129 171.429 55.1648C171.377 55.0227 171.355 54.8713 171.365 54.7203C171.358 54.2929 171.319 53.8666 171.249 53.445C171.249 53.318 171.238 53.0958 171.217 52.7783C171.192 52.5329 171.203 52.2851 171.249 52.0427C171.304 51.7713 171.324 51.4938 171.307 51.2173C171.201 50.7404 171.062 50.2717 170.889 49.815C170.561 49.096 170.162 48.4118 169.698 47.7724L168.926 47.5184L168.688 47.2644L168.629 47.3914L168.746 47.5819L168.391 47.8359C168.312 47.6665 168.291 47.5607 168.333 47.5184H168.095L168.031 47.8994C167.953 47.9973 167.854 48.0769 167.742 48.1326C167.629 48.1884 167.506 48.219 167.38 48.2222C166.69 49.2293 166.083 50.2912 165.565 51.3972C165.386 51.884 165.033 53.1681 164.507 55.2495C164.136 57.0308 163.976 58.8495 164.031 60.6681C164.008 61.9477 164.088 63.2271 164.269 64.494C163.577 64.873 162.848 65.1814 162.094 65.4148C161.318 65.677 160.506 65.8163 159.686 65.8275C159.301 65.8293 158.918 65.7648 158.554 65.637C158.223 65.5207 157.886 65.4253 157.543 65.3513C157.052 65.2576 156.597 65.0264 156.231 64.6845C155.83 64.1919 155.546 63.6147 155.4 62.9965C155.115 62.0928 154.915 61.1645 154.802 60.2236C154.669 59.4647 154.589 58.6972 154.564 57.9271C154.573 57.6296 154.553 57.3319 154.506 57.0381C154.469 56.635 154.469 56.2294 154.506 55.8263C154.543 55.3606 154.564 54.9955 154.564 54.7415C154.552 54.3998 154.573 54.0577 154.628 53.7202C154.7 53.4293 154.739 53.131 154.744 52.8312C154.628 52.9159 154.617 52.7254 154.712 52.2544C154.802 51.8796 154.853 51.4966 154.866 51.1114L154.802 50.8521C154.845 50.6828 154.961 50.2595 155.162 49.5821C155.319 49.1532 155.4 48.7001 155.4 48.2433C155.312 47.6071 155.088 46.9972 154.744 46.4548C154.548 46.2605 154.3 46.1281 154.03 46.0738H153.913C153.845 46.1241 153.76 46.1467 153.675 46.1373C153.526 46.1407 153.379 46.0962 153.257 46.0103L152.897 46.6505L152.601 46.9045C151.985 47.6474 151.538 48.5161 151.294 49.4498C151.118 50.0727 150.988 50.5643 150.892 50.924L150.892 50.924C150.793 51.3008 150.731 51.5328 150.696 51.6194C150.591 52.0551 150.452 52.4817 150.278 52.8947C149.969 53.7934 149.76 54.7232 149.653 55.6675C149.501 56.6485 149.413 57.6384 149.389 58.6309C149.406 58.9285 149.387 59.2271 149.331 59.5199C149.279 59.7292 149.258 59.9448 149.267 60.1602C149.309 60.1602 149.346 60.2977 149.389 60.5729C149.424 60.8148 149.444 61.0587 149.447 61.3032L149.505 62.0069C149.539 62.8758 149.7 63.735 149.982 64.5575C150.227 65.2985 150.557 66.0088 150.966 66.6742C151.421 67.4415 151.728 67.9495 151.886 68.2035C152.399 68.8386 153.066 69.3322 153.823 69.6375C154.471 69.9272 155.168 70.0889 155.876 70.1138C156.197 70.1033 156.516 70.0607 156.829 69.9868C157.124 69.926 157.423 69.8836 157.723 69.8598C158.18 69.8766 158.635 69.801 159.062 69.6375C159.428 69.4829 159.823 69.4071 160.221 69.4153C161.042 69.224 161.827 68.9005 162.544 68.4575L162.84 68.3305C162.877 68.3305 163.433 67.9283 164.507 67.1187L164.803 67.3727L165.518 69.0343C165.748 69.3467 166.042 69.6064 166.38 69.7963C166.73 70.0641 167.163 70.1991 167.603 70.1773L168.132 70.2408L168.608 70.0503L168.725 69.9868C169.007 70.2311 169.367 70.3679 169.741 70.3731L169.857 69.7963H170.571L170.751 69.4153L170.693 69.3518C170.847 69.0978 170.899 68.902 170.841 68.775C170.777 68.6358 170.746 68.4836 170.751 68.3305L171.048 67.9495L171.407 67.886C171.564 67.5652 171.665 67.2197 171.704 66.8647L171.762 66.2932L171.82 65.9757C171.813 65.8438 171.835 65.712 171.884 65.5894C171.873 65.2071 171.843 64.8256 171.794 64.4464C171.751 63.9014 171.704 63.5204 171.667 63.2664ZM186.542 58.144C186.483 59.7315 186.446 60.8745 186.483 61.5783C186.512 62.0383 186.537 62.4435 186.558 62.7957L186.558 62.7962L186.558 62.7972C186.594 63.4044 186.621 63.854 186.647 64.1553C186.689 64.7155 186.628 65.2787 186.467 65.8169C186.516 66.0916 186.546 66.3691 186.557 66.6477V67.5843C186.579 67.8359 186.548 68.0892 186.466 68.3279C186.384 68.5667 186.253 68.7857 186.081 68.9707C185.965 69.1189 185.727 69.3782 185.372 69.7433C185.027 70.103 184.624 70.4033 184.181 70.6323L183.049 70.9604C182.732 71.0027 182.102 70.717 181.171 70.1349L180.855 69.9374C180.101 69.4662 179.603 69.1544 179.355 69.0237C178.794 68.196 178.325 67.3087 177.959 66.3778C177.633 65.3244 177.423 64.2384 177.334 63.1393C177.287 62.6611 177.268 62.1805 177.276 61.7C177.298 60.513 177.397 59.3287 177.572 58.1546L177.81 56.6624C177.865 56.1788 177.945 55.6984 178.048 55.223C178.216 54.674 178.436 54.1424 178.705 53.6355L179.477 52.8047L180.25 52.3073L180.488 52.0851C180.721 51.9127 180.983 51.782 181.26 51.6988L181.324 51.5877C181.518 51.3779 181.765 51.2244 182.038 51.1431L182.213 51.1961L182.393 50.9209L182.631 51.032L182.869 51.3654L183.107 51.6406L183.229 51.5294L183.287 51.6406L183.467 51.3654L183.822 52.0269L184.716 52.556C185.51 53.5509 185.806 53.9742 185.605 53.826C186.212 54.5676 186.58 55.475 186.663 56.4295C186.663 56.837 186.621 57.4085 186.542 58.144ZM179.112 47.3437C179.381 47.7338 179.698 48.0893 180.054 48.402C180.798 48.7436 181.566 49.0318 182.351 49.2645C182.991 49.2155 183.623 49.0912 184.234 48.8941C184.595 48.2102 184.91 47.5031 185.176 46.7774C185.458 46.1432 185.637 45.4679 185.705 44.7772C185.711 44.5266 185.669 44.2773 185.584 44.0417C185.464 43.7871 185.297 43.5573 185.092 43.3643C184.873 43.1515 184.668 42.9253 184.478 42.687C183.873 42.2796 183.209 41.969 182.509 41.7662L182.345 41.8297C182.015 41.8246 181.686 41.7927 181.361 41.7345C181.104 41.7141 180.854 41.6421 180.625 41.5228C180.514 42.1367 180.35 42.4859 180.133 42.5812H179.885L179.805 42.9516L179.313 43.2585L179.149 43.0098C178.836 43.6239 178.642 44.2919 178.578 44.9783C178.57 45.2679 178.596 45.5575 178.657 45.8408C178.715 46.3654 178.87 46.8748 179.112 47.3437ZM354.192 30.7014C361.711 32.0084 368.03 36.2788 370.474 43.6871C372.75 50.598 370.903 58.1968 366.252 63.6631C362.177 68.4044 353.901 73.6696 347.731 70.1824C347.463 70.0208 347.236 69.801 347.066 69.5392C346.895 69.2775 346.786 68.9806 346.746 68.6708C346.707 68.3609 346.737 68.0462 346.836 67.7499C346.935 67.4536 347.1 67.1836 347.318 66.9598C349.088 65.1454 351.295 64.032 353.511 62.9134C356.059 61.6277 358.62 60.3353 360.547 57.964C362.019 56.1634 362.968 53.9933 363.291 51.6904C363.613 49.3874 363.298 47.04 362.378 44.9042C359.258 38.0503 351.488 37.9603 344.472 37.8791C343.027 37.8624 341.614 37.846 340.28 37.771C342.037 41.8985 342.762 46.6875 343.175 50.7144C343.942 58.2815 342.931 67.6266 336.761 72.8759C334.909 74.4475 332.575 72.9023 332.909 70.6322C333.119 69.184 333.353 67.7557 333.587 66.3365C334.395 61.419 335.185 56.6113 334.856 51.4658C334.565 46.878 333.951 39.6496 330.358 36.4005C326.765 33.1514 331.977 28.172 335.602 31.1565C335.695 31.2324 335.783 31.3145 335.871 31.3964C335.924 31.4457 335.977 31.495 336.031 31.5427C336.629 31.127 337.346 30.9171 338.073 30.9448C340.033 30.9545 341.997 30.8003 343.962 30.6462C347.376 30.3783 350.793 30.1102 354.192 30.7014Z" fill="#1B3882"/>
<path fill-rule="evenodd" clip-rule="evenodd" d="M60.3197 55.1912C60.6954 55.9638 61.0393 56.7046 61.378 57.4508C61.6082 57.9439 61.4381 58.4288 61.2748 58.8942C61.2542 58.9531 61.2336 59.0117 61.214 59.07C61.0373 59.6874 60.8434 60.2997 60.6497 60.9117C60.3619 61.8207 60.0743 62.7291 59.8434 63.6526C59.6091 64.5497 59.1181 65.3589 58.4305 65.9809C56.6032 67.7695 54.7917 69.5792 52.996 71.4101C52.4796 71.9418 51.8528 72.3537 51.1598 72.6166C49.6149 73.1488 48.1025 73.7707 46.6301 74.4793C44.6731 75.5215 42.7555 75.1643 40.8342 74.8064C40.1216 74.6737 39.4085 74.5409 38.6927 74.4793C38.2782 74.4556 38.0021 74.1022 37.7327 73.7572C37.6409 73.6397 37.5499 73.5232 37.4544 73.421C37.0482 72.9957 36.655 72.5585 36.262 72.1216C35.7847 71.591 35.3078 71.0608 34.8086 70.5529C34.5647 70.3095 34.3878 70.0071 34.2951 69.6752C34.2023 69.3433 34.197 68.9931 34.2794 68.6585C34.6577 66.1937 35.4674 63.8149 36.6713 61.6312C37.2183 60.5307 38.0634 59.606 39.1102 58.9623C40.1571 58.3187 41.3637 57.982 42.5926 57.9905C43.6287 57.9947 44.6455 57.7107 45.5295 57.1703C46.9476 56.2919 47.3816 54.8526 47.7679 53.4661C48.3023 51.5559 49.7946 50.7092 51.3133 50.053C53.7527 48.9947 56.044 49.8784 58.1924 51.1113C58.329 51.1951 58.4462 51.307 58.5364 51.4394L59.9069 53.4026L60.3197 55.1912ZM44.8998 56.6835C44.2648 57.2709 43.2646 57.0592 42.4656 56.7417C41.9799 56.5516 42.1947 56.1403 42.3797 55.7863L42.3809 55.7839C43.3017 54.3657 44.2224 52.9529 45.7782 52.0797C46.5878 51.6405 46.8048 52.0268 46.8048 52.6989C46.793 53.4611 46.6166 54.2117 46.2879 54.8994C45.9591 55.5871 45.4856 56.1957 44.8998 56.6835Z" fill="#1B3882"/>
<defs>
<linearGradient id="paint0_linear_223_281" x1="4.57259" y1="10.4467" x2="100.795" y2="44.1186" gradientUnits="userSpaceOnUse">
<stop stop-color="#8B62FF"/>
<stop offset="1" stop-color="#2B50FF"/>
</linearGradient>
</defs>
</svg>
